<?xml version="1.0" encoding="UTF-8"?>
<svg id="Réteg_2" data-name="Réteg 2" xmlns="http://www.w3.org/2000/svg" viewBox="0 0 750.98 290.33">
  <defs>
    <style>
      .cls-1 {
        letter-spacing: 0em;
      }

      .cls-2, .cls-3 {
        font-family: Montserrat-Regular, Montserrat;
      }

      .cls-4 {
        font-family: Montserrat-SemiBold, Montserrat;
        font-weight: 600;
      }

      .cls-3 {
        letter-spacing: 0em;
      }

      .cls-5 {
        letter-spacing: 0em;
      }

      .cls-6 {
        letter-spacing: -.02em;
      }

      .cls-7 {
        font-family: Montserrat-Italic, Montserrat;
        font-size: 41.46px;
        font-style: italic;
      }

      .cls-7, .cls-8 {
        fill: #fff;
      }

      .cls-8 {
        font-size: 57.19px;
      }

      .cls-9 {
        fill: none;
        stroke: #fff;
        stroke-linejoin: round;
        stroke-width: 5px;
      }
    </style>
  </defs>
  <g id="Réteg_1" data-name="Réteg 1">
    <g>
      <g>
        <path class="cls-9" d="M11.73,177.39c1.05,2.1,2.19,4.22,3.39,6.35-1.34-2.05-2.47-4.18-3.39-6.35Z"/>
        <path class="cls-9" d="M127.37,132.48c-21.3-4.17-44.59-13.63-65.73-17.97,10.53-2.8,22.14-4.34,34.32-4.34,7.33,0,14.44.56,21.24,1.61,1.06,8.02,4.74,15.23,10.17,20.69Z"/>
        <path class="cls-9" d="M172.81,138.59c-.43-.15-.87-.29-1.31-.43.2-.12.41-.25.61-.37.24.27.48.53.7.8Z"/>
        <path class="cls-9" d="M149.8,56.34c0,5.16-.73,10.15-2.08,14.88-17.1,2.54-30.31,17.03-30.81,34.73h0c-6.44,2.73-13.52,4.23-20.94,4.23-29.73,0-53.84-24.1-53.84-53.84S66.23,2.5,95.96,2.5s53.84,24.1,53.84,53.84Z"/>
        <path class="cls-9" d="M189.28,107c0,13.01-6.86,24.41-17.17,30.79-.2.13-.41.25-.61.37-7.48-2.38-15.95-3.65-25.41-3.65-5.98,0-12.26-.78-18.72-2.04-5.42-5.47-9.11-12.67-10.17-20.69-.21-1.56-.32-3.16-.32-4.78,0-.36,0-.71.02-1.06h0c.5-17.7,13.71-32.2,30.81-34.73,1.74-.27,3.54-.4,5.36-.4,19.99,0,36.2,16.2,36.2,36.19Z"/>
        <path class="cls-9" d="M214.99,205.45c0,40.1-27.62,91.2-84.68,81.07-31.21-5.54-89.55-57.54-115.18-102.78,0,0,0,0,0,0-1.21-2.13-2.34-4.25-3.39-6.35-9.42-18.69-12.57-35.76-4.99-47.22,12.64-19.12,32.57-20.25,54.9-15.66,21.13,4.34,44.43,13.8,65.73,17.97,6.46,1.26,12.74,2.04,18.72,2.04,9.46,0,17.93,1.28,25.41,3.65.44.13.88.28,1.31.43,28.41,9.63,42.18,35.39,42.18,66.86Z"/>
      </g>
      <text class="cls-8" transform="translate(234.36 143.85)"><tspan class="cls-4" x="0" y="0">BABA</tspan><tspan class="cls-2" x="172.7" y="0">HORD</tspan><tspan class="cls-3" x="355.76" y="0">O</tspan><tspan class="cls-2" x="403.22" y="0">ZÁS</tspan></text>
      <text class="cls-7" transform="translate(234.36 193.57)"><tspan class="cls-6" x="0" y="0">b</tspan><tspan x="27.49" y="0">y O</tspan><tspan class="cls-5" x="95.61" y="0">r</tspan><tspan class="cls-1" x="111.9" y="0">bán Mia</tspan></text>
    </g>
  </g>
</svg>