<svg xmlns="http://www.w3.org/2000/svg" xmlns:xlink="http://www.w3.org/1999/xlink" width="120" zoomAndPan="magnify" viewBox="0 0 90 119.999999" height="160" preserveAspectRatio="xMidYMid meet" version="1.0"><path fill="#6d6b6b" d="M 87.34375 17.566406 C 88.246094 17.800781 89.132812 18.09375 89.996094 18.4375 L 89.996094 -0.480469 L 24.519531 -0.480469 C 24.460938 -0.570312 24.402344 -0.660156 24.347656 -0.75 C 24.296875 -0.675781 24.246094 -0.605469 24.199219 -0.53125 C 24.1875 -0.515625 24.175781 -0.496094 24.160156 -0.480469 L 12.570312 -0.480469 C 11.917969 2.609375 11.082031 5.628906 9.527344 8.367188 C 6.871094 13.03125 2.199219 16.703125 1.140625 21.964844 C 0.00390625 27.644531 4.359375 33.878906 10.109375 34.589844 C 15.859375 35.300781 21.667969 30.132812 21.460938 24.34375 C 21.34375 21.074219 19.605469 17.882812 20.21875 14.671875 C 20.320312 14.144531 20.488281 13.640625 20.710938 13.167969 C 22.195312 10.007812 26.167969 8.152344 29.699219 8.792969 C 32.410156 9.28125 34.75 10.941406 36.445312 13.136719 C 37.292969 14.234375 37.980469 15.460938 38.472656 16.746094 C 39.535156 19.511719 39.804688 22.40625 39.609375 25.335938 C 39.257812 30.488281 40.816406 35.570312 43.984375 39.648438 C 44.050781 39.730469 44.109375 39.816406 44.171875 39.902344 C 45.847656 42.324219 46.222656 45.402344 47.410156 48.097656 C 50.042969 54.054688 57.078125 57.703125 63.460938 56.421875 C 67.109375 55.691406 70.894531 52.199219 69.484375 48.757812 C 68.582031 46.5625 66.058594 45.617188 64.246094 44.085938 C 59.757812 40.300781 60.085938 33.015625 62.980469 27.902344 C 63.285156 27.367188 63.609375 26.847656 63.960938 26.339844 C 67.59375 21.078125 73.625 17.503906 80.003906 16.933594 C 82.070312 16.746094 84.160156 16.878906 86.1875 17.296875 C 86.574219 17.375 86.960938 17.464844 87.34375 17.566406 Z M 87.34375 17.566406 " fill-opacity="1" fill-rule="nonzero"/><path fill="#bda78f" d="M 89.996094 33.921875 L 89.996094 -0.480469 L 24.519531 -0.480469 C 24.460938 -0.570312 24.402344 -0.660156 24.347656 -0.75 C 24.296875 -0.675781 24.246094 -0.605469 24.199219 -0.53125 C 24.1875 -0.515625 24.175781 -0.496094 24.160156 -0.480469 C 23.683594 0.21875 23.203125 0.914062 22.726562 1.613281 C 20.625 4.671875 18.4375 8.464844 19.914062 11.867188 C 20.121094 12.34375 20.390625 12.777344 20.710938 13.167969 C 22.144531 14.925781 24.59375 15.832031 26.917969 15.835938 C 29.757812 15.835938 32.472656 14.75 35.101562 13.679688 C 35.550781 13.5 35.996094 13.316406 36.445312 13.136719 C 40.597656 11.453125 44.78125 9.800781 49.066406 8.523438 C 49.253906 8.464844 49.441406 8.410156 49.625 8.359375 C 51.558594 7.796875 53.511719 7.316406 55.492188 6.941406 C 58.496094 6.378906 61.679688 6.089844 64.535156 7.164062 C 66.289062 7.820312 67.871094 9.121094 68.773438 10.730469 C 68.824219 10.816406 68.867188 10.902344 68.914062 10.988281 C 69.394531 11.9375 69.640625 12.988281 69.550781 14.070312 C 69.167969 18.648438 63.289062 21.992188 63.960938 26.339844 C 63.988281 26.515625 64.023438 26.691406 64.074219 26.867188 C 64.691406 29.121094 67.042969 30.511719 69.351562 30.875 C 71.660156 31.238281 74.011719 30.816406 76.34375 30.707031 C 81.078125 30.484375 85.835938 31.660156 89.996094 33.921875 Z M 89.996094 33.921875 " fill-opacity="1" fill-rule="nonzero"/><path fill="#000000" d="M 86.1875 17.296875 C 84.019531 16.304688 81.816406 15.382812 79.589844 14.527344 C 76.101562 13.191406 72.535156 11.964844 68.914062 10.988281 C 67.640625 10.644531 66.359375 10.332031 65.078125 10.058594 C 61.65625 9.328125 57.789062 9.066406 54.480469 10.316406 C 55.9375 11.4375 56.945312 13.03125 57.203125 14.878906 C 57.457031 16.699219 56.925781 18.75 55.378906 19.867188 C 54.09375 20.792969 52.285156 20.96875 50.824219 20.386719 C 49.125 19.710938 48.277344 18.050781 48.546875 16.257812 C 48.882812 14.058594 50.542969 12.253906 52.367188 11.113281 C 52.890625 10.785156 53.4375 10.503906 54.003906 10.265625 C 52.511719 9.234375 50.828125 8.734375 49.066406 8.523438 C 46.351562 8.195312 43.457031 8.554688 40.835938 8.710938 C 38.335938 8.859375 35.78125 8.828125 33.402344 7.953125 C 31.535156 7.269531 29.871094 6.128906 28.433594 4.765625 C 26.792969 3.207031 25.453125 1.40625 24.230469 -0.480469 C 24.21875 -0.496094 24.207031 -0.515625 24.199219 -0.53125 C 24.246094 -0.605469 24.296875 -0.675781 24.347656 -0.75 C 24.402344 -0.660156 24.460938 -0.570312 24.519531 -0.480469 C 25.316406 0.742188 26.167969 1.929688 27.128906 3.039062 C 28.5625 4.703125 30.234375 6.1875 32.207031 7.175781 C 34.671875 8.410156 37.398438 8.625 40.113281 8.507812 C 43.175781 8.371094 46.519531 7.871094 49.625 8.359375 C 51.164062 8.601562 52.644531 9.085938 54.003906 9.976562 C 54.09375 10.035156 54.179688 10.09375 54.265625 10.15625 C 55.738281 9.574219 57.324219 9.269531 58.902344 9.199219 C 61.710938 9.070312 64.5 9.621094 67.207031 10.316406 C 67.730469 10.449219 68.253906 10.585938 68.773438 10.730469 C 70.816406 11.285156 72.84375 11.902344 74.851562 12.574219 C 79.105469 13.996094 83.28125 15.664062 87.34375 17.566406 C 88.234375 17.984375 89.117188 18.410156 89.996094 18.851562 L 89.996094 19.121094 C 88.738281 18.488281 87.46875 17.878906 86.1875 17.296875 Z M 54.21875 10.417969 C 53.050781 10.890625 51.960938 11.5625 50.984375 12.472656 C 49.375 13.980469 47.917969 16.632812 49.214844 18.777344 C 50.113281 20.269531 52.097656 20.730469 53.707031 20.355469 C 55.726562 19.882812 56.929688 18.078125 57.019531 16.058594 C 57.121094 13.871094 56.054688 11.8125 54.328125 10.5 C 54.292969 10.472656 54.257812 10.445312 54.21875 10.417969 Z M 54.21875 10.417969 " fill-opacity="1" fill-rule="nonzero"/></svg>