<svg xmlns="http://www.w3.org/2000/svg" xmlns:xlink="http://www.w3.org/1999/xlink" width="120" zoomAndPan="magnify" viewBox="0 0 90 119.999999" height="160" preserveAspectRatio="xMidYMid meet" version="1.0"><path fill="#e7ab85" d="M 31.699219 68.214844 C 30.179688 74.613281 28.070312 79.429688 26.421875 82.59375 C 24.507812 86.222656 23.054688 88.003906 20.878906 88.664062 C 18.898438 89.257812 16.589844 88.796875 15.007812 87.742188 C 9.070312 83.847656 11.3125 70.589844 13.6875 63.59375 C 15.007812 59.902344 17.183594 53.898438 22.726562 51.457031 C 24.175781 50.863281 25.429688 50.597656 26.355469 50.46875 C 28.203125 56.40625 29.917969 62.277344 31.699219 68.214844 Z M 31.699219 68.214844 " fill-opacity="1" fill-rule="nonzero"/><path fill="#3f3d4a" d="M 43.507812 0 C 46.144531 0 48.386719 2.242188 48.453125 5.210938 C 48.980469 5.144531 52.082031 4.949219 54.457031 7.453125 C 56.636719 9.699219 56.636719 12.601562 56.636719 13.261719 C 58.945312 13.0625 60.921875 14.316406 61.648438 16.292969 C 62.375 18.40625 61.253906 20.386719 61.121094 20.648438 C 61.449219 20.914062 63.429688 22.496094 63.496094 25.398438 C 63.628906 29.09375 60.660156 31.402344 60.460938 31.535156 C 60.527344 32.0625 60.726562 34.570312 59.074219 36.746094 C 57.359375 38.988281 54.390625 39.910156 51.621094 38.988281 C 50.761719 41.164062 48.785156 42.683594 46.671875 42.75 C 44.695312 42.816406 42.847656 41.691406 42.054688 39.78125 C 41.527344 41.164062 40.273438 42.15625 39.019531 42.15625 C 37.4375 42.222656 36.050781 40.703125 36.117188 38.722656 C 35.65625 39.976562 34.601562 40.902344 33.480469 41.035156 C 32.027344 41.230469 30.578125 40.042969 30.378906 38.261719 C 28.070312 40.375 24.96875 40.242188 23.453125 38.460938 C 22.394531 37.140625 22.265625 35.03125 23.1875 33.117188 C 22.925781 32.917969 20.21875 30.875 20.285156 26.980469 C 20.351562 22.957031 23.386719 20.648438 23.648438 20.449219 C 23.519531 19.726562 23.320312 17.679688 24.441406 15.503906 C 26.222656 12.074219 29.652344 11.414062 30.046875 11.347656 C 28.730469 8.378906 29.984375 4.816406 32.359375 3.496094 C 34.140625 2.507812 36.382812 2.835938 38.03125 4.289062 C 38.890625 1.714844 41.199219 0 43.507812 0 Z M 43.507812 0 " fill-opacity="1" fill-rule="nonzero"/><path fill="#e7ab85" d="M 66.199219 51.457031 C 67.125 53.4375 68.445312 56.46875 69.695312 60.296875 C 72.402344 68.542969 71.28125 69.996094 73.589844 77.054688 C 76.226562 85.234375 78.601562 86.089844 78.800781 92.027344 C 79 96.582031 77.746094 100.078125 77.347656 101.265625 C 75.964844 104.894531 73.984375 107.464844 72.601562 108.917969 C 71.609375 104.761719 70.621094 100.605469 69.632812 96.515625 C 68.640625 93.28125 67.71875 89.917969 66.859375 86.421875 C 64.222656 75.734375 62.703125 65.707031 61.847656 56.46875 C 63.230469 54.753906 64.75 53.105469 66.199219 51.457031 Z M 66.199219 51.457031 " fill-opacity="1" fill-rule="nonzero"/><path fill="#e7ab85" d="M 54.457031 23.351562 C 54.390625 23.882812 54.324219 24.738281 54.128906 25.859375 C 53.929688 26.851562 53.730469 27.574219 53.667969 27.773438 C 52.808594 31.136719 53.730469 34.371094 52.414062 36.351562 C 51.753906 37.339844 50.300781 38.394531 46.542969 38.460938 C 46.476562 40.042969 46.410156 41.628906 46.34375 43.277344 C 50.234375 44.332031 54.128906 45.453125 58.019531 46.507812 C 56.238281 53.039062 50.167969 57.527344 43.574219 57.394531 C 37.371094 57.261719 31.765625 53.105469 29.851562 47.035156 C 33.214844 45.71875 36.578125 44.398438 39.945312 43.078125 C 39.945312 42.417969 40.40625 31.203125 40.472656 30.675781 C 40.472656 30.28125 40.671875 25.53125 40.671875 25.132812 C 40.671875 25.003906 40.800781 21.835938 40.800781 21.703125 C 42.980469 21.375 46.011719 21.175781 49.574219 21.902344 C 51.488281 22.230469 53.136719 22.824219 54.457031 23.351562 Z M 54.457031 23.351562 " fill-opacity="1" fill-rule="nonzero"/><path fill="#3f3d4a" d="M 50.761719 26.320312 C 51.621094 26.320312 51.621094 27.640625 50.761719 27.640625 C 49.972656 27.640625 49.972656 26.320312 50.761719 26.320312 Z M 44.5625 26.980469 C 45.417969 26.980469 45.417969 25.664062 44.5625 25.664062 C 43.703125 25.664062 43.703125 26.980469 44.5625 26.980469 Z M 50.234375 23.484375 C 50.234375 23.550781 50.234375 23.683594 50.234375 23.75 C 50.234375 23.816406 50.300781 23.882812 50.367188 23.945312 C 50.433594 24.011719 50.5 24.078125 50.566406 24.144531 C 50.828125 24.277344 51.027344 24.410156 51.292969 24.476562 C 51.421875 24.539062 51.488281 24.539062 51.621094 24.539062 C 51.6875 24.539062 51.753906 24.539062 51.820312 24.539062 C 52.015625 24.476562 52.148438 24.410156 52.214844 24.210938 C 52.28125 24.144531 52.28125 24.078125 52.28125 23.945312 C 52.28125 23.882812 52.28125 23.75 52.28125 23.683594 C 52.28125 23.617188 52.214844 23.550781 52.148438 23.484375 C 52.082031 23.417969 52.015625 23.351562 51.949219 23.289062 C 51.6875 23.15625 51.488281 23.023438 51.226562 22.957031 C 51.09375 22.890625 51.027344 22.890625 50.894531 22.890625 L 50.699219 22.890625 C 50.5 22.957031 50.367188 23.023438 50.300781 23.222656 C 50.300781 23.351562 50.234375 23.417969 50.234375 23.484375 Z M 43.640625 22.957031 C 43.640625 23.089844 43.703125 23.289062 43.835938 23.417969 C 43.96875 23.550781 44.167969 23.617188 44.296875 23.617188 L 45.289062 23.617188 C 45.484375 23.617188 45.617188 23.550781 45.75 23.417969 C 45.882812 23.289062 45.949219 23.15625 45.949219 22.957031 C 45.949219 22.824219 45.882812 22.628906 45.75 22.496094 C 45.617188 22.363281 45.417969 22.296875 45.289062 22.296875 L 44.296875 22.296875 C 44.101562 22.296875 43.96875 22.363281 43.835938 22.496094 C 43.703125 22.628906 43.640625 22.757812 43.640625 22.957031 Z M 43.640625 22.957031 " fill-opacity="1" fill-rule="nonzero"/><path fill="#bc3d24" d="M 48.191406 31.796875 C 48.324219 31.730469 48.519531 31.601562 48.585938 31.46875 C 48.652344 31.269531 48.652344 31.136719 48.652344 30.941406 C 48.652344 30.941406 48.652344 30.875 48.652344 30.875 C 48.652344 30.808594 48.652344 30.742188 48.652344 30.675781 C 48.652344 30.542969 48.652344 30.476562 48.652344 30.347656 C 48.652344 30.148438 48.652344 29.949219 48.585938 29.753906 C 48.585938 29.355469 48.585938 28.894531 48.585938 28.5 C 48.585938 28.101562 48.257812 27.839844 47.925781 27.839844 C 47.53125 27.839844 47.265625 28.167969 47.265625 28.5 C 47.199219 29.421875 47.265625 30.347656 47.398438 31.269531 C 47.398438 31.664062 47.859375 31.863281 48.191406 31.796875 Z M 41.199219 48.621094 C 39.285156 48.160156 37.4375 47.695312 35.589844 47.234375 C 34.796875 47.035156 34.402344 48.289062 35.261719 48.488281 C 37.109375 48.949219 39.019531 49.410156 40.867188 49.875 C 41.199219 49.941406 41.59375 49.742188 41.660156 49.410156 C 41.726562 49.082031 41.527344 48.6875 41.199219 48.621094 Z M 52.414062 47.761719 C 50.761719 47.960938 49.046875 48.160156 47.398438 48.355469 C 47.070312 48.421875 46.738281 48.621094 46.738281 49.015625 C 46.738281 49.347656 47.070312 49.742188 47.398438 49.675781 C 49.046875 49.476562 50.761719 49.28125 52.414062 49.082031 C 52.742188 49.015625 53.074219 48.816406 53.074219 48.421875 C 53.074219 48.09375 52.808594 47.695312 52.414062 47.761719 Z M 47.792969 33.710938 C 47.730469 33.382812 47.332031 33.183594 47.003906 33.25 C 46.9375 33.25 46.871094 33.25 46.804688 33.316406 C 46.671875 33.316406 46.542969 33.316406 46.410156 33.316406 C 46.277344 33.316406 46.078125 33.25 45.949219 33.183594 C 45.882812 33.117188 45.75 33.117188 45.683594 33.050781 C 45.550781 32.984375 45.417969 32.851562 45.550781 32.984375 C 45.484375 32.917969 45.417969 32.917969 45.417969 32.851562 C 45.15625 32.589844 44.761719 32.589844 44.496094 32.851562 C 44.230469 33.117188 44.230469 33.578125 44.496094 33.777344 C 45.222656 34.503906 46.34375 34.765625 47.332031 34.503906 C 47.664062 34.4375 47.859375 34.039062 47.792969 33.710938 Z M 47.792969 33.710938 " fill-opacity="1" fill-rule="nonzero"/><path fill="#fadeb7" d="M 17.777344 53.4375 C 21.472656 58.78125 24.375 64.585938 26.355469 70.71875 C 27.609375 73.359375 28.796875 76.855469 29.058594 80.945312 C 29.324219 85.300781 28.269531 89.125 27.738281 90.839844 C 27.738281 90.90625 27.738281 90.90625 27.476562 91.566406 C 25.894531 96.25 24.640625 100.207031 24.507812 100.671875 C 23.847656 102.714844 23.253906 107.070312 25.300781 116.636719 C 31.234375 118.351562 40.011719 120 50.5 119.207031 C 56.371094 118.746094 61.449219 117.691406 65.605469 116.4375 C 66.265625 106.210938 64.351562 99.085938 62.308594 94.335938 C 60.789062 90.773438 58.8125 87.609375 59.140625 82.792969 C 59.40625 79.363281 60.59375 78.570312 61.914062 72.304688 C 62.96875 67.554688 62.507812 66.761719 63.363281 63 C 63.957031 60.363281 65.144531 56.601562 67.652344 52.316406 C 66.792969 51.257812 65.476562 49.808594 63.5625 48.554688 C 60.789062 46.707031 58.152344 46.046875 56.570312 45.785156 C 55.644531 51.589844 51.027344 56.074219 45.550781 56.734375 C 39.21875 57.394531 33.015625 52.90625 31.566406 46.179688 C 30.179688 46.3125 28.003906 46.707031 25.628906 47.695312 C 22.265625 49.148438 19.757812 51.191406 17.777344 53.4375 Z M 61.914062 72.304688 C 62.042969 71.378906 62.109375 70.457031 62.042969 69.335938 C 61.914062 65.839844 60.988281 62.9375 60.789062 62.9375 C 60.726562 62.9375 60.921875 64.980469 61.914062 72.304688 Z M 61.914062 72.304688 " fill-opacity="1" fill-rule="nonzero"/><path fill="#ce5661" d="M 40.800781 85.628906 C 39.878906 81.144531 38.953125 76.65625 38.03125 72.171875 C 33.675781 64.125 29.324219 56.007812 25.035156 47.894531 C 26.023438 47.367188 27.082031 46.839844 28.332031 46.441406 C 31.039062 45.453125 33.480469 45.125 35.390625 44.992188 C 37.238281 50.535156 38.691406 55.019531 39.546875 57.921875 C 41.066406 62.871094 41.726562 63.992188 42.714844 66.101562 C 44.761719 70.457031 49.378906 72.964844 53.996094 72.304688 C 58.285156 71.644531 61.78125 68.410156 62.835938 64.058594 C 62.042969 61.550781 60.988281 58.78125 59.539062 55.8125 C 57.230469 51.128906 54.65625 47.433594 52.347656 44.597656 C 53.601562 44.464844 55.382812 44.398438 57.359375 44.792969 C 59.667969 45.191406 61.449219 45.980469 62.703125 46.640625 C 64.089844 50.070312 65.476562 54.226562 66.398438 59.042969 C 66.859375 61.417969 67.125 63.59375 67.257812 65.707031 C 68.179688 67.421875 69.367188 70.191406 69.632812 73.621094 C 69.894531 76.589844 69.367188 77.777344 69.5 80.152344 C 69.761719 84.835938 72.269531 85.429688 74.183594 90.578125 C 76.160156 95.921875 76.425781 102.847656 73.523438 107.136719 C 72.203125 109.050781 71.28125 109.179688 69.894531 110.367188 C 68.707031 111.359375 68.113281 112.28125 67.851562 112.613281 C 66.925781 113.863281 54.917969 117.164062 45.023438 109.839844 C 43.109375 108.390625 39.8125 105.488281 37.304688 100.273438 C 32.753906 102.453125 28.203125 104.628906 23.648438 106.804688 C 23.582031 105.550781 23.582031 104.035156 23.847656 102.253906 C 24.175781 100.078125 24.769531 98.296875 25.363281 96.976562 C 28.203125 94.996094 30.972656 93.085938 33.808594 91.105469 C 31.828125 90.839844 29.851562 90.511719 27.9375 90.246094 C 28.203125 88.730469 28.332031 87.148438 28.464844 85.496094 C 28.53125 84.574219 28.597656 83.714844 28.597656 82.859375 C 32.6875 83.714844 36.710938 84.707031 40.800781 85.628906 Z M 40.800781 85.628906 " fill-opacity="1" fill-rule="nonzero"/><path fill="#e7ab85" d="M 47.792969 60.164062 C 48.652344 57.722656 51.753906 56.207031 54.324219 56.46875 C 57.691406 56.734375 61.449219 59.96875 61.582031 64.78125 C 61.714844 69.335938 58.546875 72.699219 55.382812 73.558594 C 52.28125 74.414062 48.453125 72.964844 47.53125 70.390625 C 47.070312 69.070312 47.730469 68.476562 47.730469 64.320312 C 47.792969 61.417969 47.464844 61.15625 47.792969 60.164062 Z M 47.792969 60.164062 " fill-opacity="1" fill-rule="nonzero"/><path fill="#3f3d4a" d="M 58.878906 64.058594 C 57.625 64.253906 56.371094 64.1875 55.910156 63.464844 C 55.316406 62.605469 55.910156 60.5625 55.777344 60.890625 C 55.710938 60.957031 55.117188 62.605469 53.535156 62.9375 C 52.214844 63.199219 50.761719 62.539062 50.105469 61.21875 C 49.90625 62.144531 49.113281 62.738281 48.386719 62.671875 C 47.730469 62.605469 47.265625 61.945312 47.136719 61.484375 C 46.871094 60.496094 47.597656 59.570312 47.992188 59.042969 C 48.980469 57.722656 52.015625 54.886719 55.976562 55.746094 C 59.472656 56.535156 61.054688 59.636719 61.253906 60.03125 C 61.714844 60.363281 62.441406 60.957031 62.96875 62.011719 C 63.164062 62.34375 64.089844 64.125 63.363281 66.035156 C 62.769531 67.621094 61.121094 69.203125 59.933594 68.808594 C 58.945312 68.476562 58.285156 66.5 58.878906 64.058594 Z M 58.878906 64.058594 " fill-opacity="1" fill-rule="nonzero"/><path fill="#3f3d4a" d="M 54.128906 66.5625 C 54.984375 66.5625 54.984375 67.882812 54.128906 67.882812 C 53.269531 67.882812 53.269531 66.5625 54.128906 66.5625 Z M 49.179688 67.222656 C 50.039062 67.222656 50.039062 65.90625 49.179688 65.90625 C 48.324219 65.90625 48.324219 67.222656 49.179688 67.222656 Z M 54.261719 64.320312 C 54.261719 64.386719 54.261719 64.519531 54.261719 64.585938 C 54.261719 64.652344 54.324219 64.71875 54.390625 64.78125 C 54.457031 64.847656 54.523438 64.914062 54.589844 64.980469 C 54.855469 65.113281 55.050781 65.246094 55.316406 65.3125 C 55.449219 65.375 55.511719 65.375 55.644531 65.375 C 55.710938 65.375 55.777344 65.375 55.84375 65.375 C 56.042969 65.3125 56.171875 65.246094 56.238281 65.046875 C 56.304688 64.980469 56.304688 64.914062 56.304688 64.78125 C 56.304688 64.71875 56.304688 64.585938 56.304688 64.519531 C 56.304688 64.453125 56.238281 64.386719 56.171875 64.320312 C 56.105469 64.253906 56.042969 64.1875 55.976562 64.125 C 55.710938 63.992188 55.511719 63.859375 55.25 63.792969 C 55.117188 63.726562 55.050781 63.726562 54.917969 63.726562 L 54.722656 63.726562 C 54.523438 63.792969 54.390625 63.859375 54.324219 64.058594 C 54.324219 64.1875 54.261719 64.253906 54.261719 64.320312 Z M 48.324219 63.792969 C 48.324219 63.925781 48.386719 64.125 48.519531 64.253906 C 48.652344 64.386719 48.851562 64.453125 48.980469 64.453125 L 49.972656 64.453125 C 50.167969 64.453125 50.300781 64.386719 50.433594 64.253906 C 50.566406 64.125 50.632812 63.992188 50.632812 63.792969 C 50.632812 63.660156 50.566406 63.464844 50.433594 63.332031 C 50.300781 63.199219 50.105469 63.132812 49.972656 63.132812 L 48.980469 63.132812 C 48.785156 63.132812 48.652344 63.199219 48.519531 63.332031 C 48.324219 63.464844 48.324219 63.660156 48.324219 63.792969 Z M 48.324219 63.792969 " fill-opacity="1" fill-rule="nonzero"/><path fill="#bc3d24" d="M 51.621094 68.277344 C 51.554688 68.410156 51.488281 68.609375 51.292969 68.675781 C 51.226562 68.742188 51.160156 68.742188 51.027344 68.742188 C 50.960938 68.742188 50.828125 68.742188 50.761719 68.742188 C 50.632812 68.675781 50.433594 68.609375 50.367188 68.410156 C 50.300781 68.277344 50.234375 68.082031 50.300781 67.882812 C 50.367188 67.621094 50.433594 67.421875 50.566406 67.15625 C 50.632812 67.027344 50.699219 66.828125 50.894531 66.761719 C 50.960938 66.695312 51.027344 66.695312 51.160156 66.695312 C 51.226562 66.695312 51.355469 66.695312 51.421875 66.695312 C 51.554688 66.761719 51.753906 66.828125 51.820312 67.027344 C 51.886719 67.15625 51.949219 67.355469 51.886719 67.554688 C 51.753906 67.816406 51.6875 68.082031 51.621094 68.277344 Z M 50.105469 70.984375 C 51.027344 71.378906 52.148438 71.3125 53.007812 70.71875 C 53.335938 70.523438 53.335938 70.125 53.203125 69.796875 C 53.007812 69.464844 52.542969 69.402344 52.28125 69.597656 C 52.214844 69.664062 52.148438 69.664062 52.082031 69.730469 C 51.949219 69.796875 51.820312 69.863281 51.6875 69.863281 C 51.554688 69.863281 51.355469 69.929688 51.226562 69.929688 C 51.160156 69.929688 51.027344 69.929688 50.960938 69.863281 C 50.894531 69.863281 50.699219 69.796875 50.894531 69.863281 C 50.828125 69.863281 50.761719 69.796875 50.699219 69.796875 C 50.367188 69.664062 49.972656 69.796875 49.839844 70.125 C 49.574219 70.390625 49.773438 70.851562 50.105469 70.984375 Z M 50.105469 70.984375 " fill-opacity="1" fill-rule="nonzero"/><path fill="#ce5661" d="M 38.492188 37.734375 L 33.480469 39.910156 C 32.359375 40.375 31.105469 39.847656 30.578125 38.789062 L 26.421875 29.160156 C 25.957031 28.039062 26.488281 26.785156 27.542969 26.257812 L 32.554688 24.078125 C 33.675781 23.617188 34.929688 24.144531 35.457031 25.199219 L 39.613281 34.832031 C 40.078125 35.953125 39.546875 37.273438 38.492188 37.734375 Z M 38.492188 37.734375 " fill-opacity="1" fill-rule="nonzero"/><path fill="#e7ab85" d="M 78.601562 89.125 C 79 91.898438 79.394531 98.097656 76.03125 104.300781 C 74.910156 106.410156 73.523438 108.125 72.335938 109.378906 C 71.941406 110.171875 70.882812 111.886719 68.839844 113.203125 C 66.859375 114.457031 65.011719 114.722656 64.089844 114.789062 C 63.496094 114.855469 62.507812 114.789062 61.382812 114.390625 C 60.066406 113.929688 59.273438 113.140625 59.011719 112.941406 C 58.546875 112.480469 57.425781 111.359375 57.492188 110.367188 C 57.625 108.984375 59.933594 107.730469 63.296875 107.53125 C 62.308594 107.203125 61.515625 107.136719 60.921875 107.203125 C 60.195312 107.269531 59.667969 107.398438 59.273438 107.070312 C 59.011719 106.871094 58.878906 106.476562 58.945312 106.144531 C 59.140625 105.289062 61.320312 105.222656 63.957031 105.023438 C 67.191406 104.761719 68.507812 104.695312 70.488281 104.363281 C 72.203125 104.035156 73.128906 103.902344 73.589844 103.574219 C 76.691406 101.59375 75.238281 94.402344 74.84375 92.621094 C 76.097656 91.367188 77.347656 90.246094 78.601562 89.125 Z M 78.601562 89.125 " fill-opacity="1" fill-rule="nonzero"/><path fill="#3f3d4a" d="M 72.730469 109.839844 C 71.542969 111.359375 70.355469 112.875 68.839844 113.996094 C 68.046875 114.589844 67.257812 115.050781 66.398438 115.316406 C 65.605469 115.578125 64.484375 115.644531 64.089844 114.789062 C 63.824219 114.984375 63.496094 115.117188 63.164062 115.25 C 62.507812 115.515625 61.78125 115.578125 61.054688 115.382812 C 60.394531 115.183594 59.601562 114.65625 59.734375 113.863281 C 59.273438 113.863281 58.878906 113.796875 58.546875 113.535156 C 58.019531 113.140625 57.824219 112.609375 57.886719 112.019531 C 57.558594 111.953125 57.230469 111.6875 56.964844 111.359375 C 56.636719 110.832031 56.699219 110.039062 57.03125 109.511719 C 57.425781 108.917969 58.085938 108.585938 58.679688 108.257812 C 60.066406 107.597656 61.515625 107.070312 63.035156 106.738281 C 63.890625 106.542969 64.15625 107.863281 63.296875 108.058594 C 62.109375 108.324219 60.921875 108.71875 59.800781 109.179688 C 59.339844 109.378906 58.8125 109.578125 58.417969 109.90625 C 58.21875 110.039062 57.824219 110.5 58.085938 110.699219 C 58.417969 110.960938 59.074219 110.632812 59.40625 110.5 C 60 110.238281 60.59375 109.972656 61.1875 109.773438 C 62.308594 109.3125 63.496094 108.785156 64.617188 108.324219 C 64.945312 108.191406 65.34375 108.257812 65.539062 108.585938 C 65.671875 108.851562 65.605469 109.3125 65.277344 109.511719 C 63.824219 110.105469 62.375 110.765625 60.921875 111.359375 C 60.460938 111.554688 59.867188 111.820312 59.273438 112.015625 C 59.273438 112.148438 59.273438 112.214844 59.207031 112.347656 C 59.207031 112.347656 59.273438 112.480469 59.339844 112.546875 C 59.472656 112.675781 59.667969 112.675781 59.867188 112.675781 C 60.460938 112.609375 61.054688 112.28125 61.648438 112.082031 C 62.96875 111.554688 64.222656 110.894531 65.410156 110.171875 C 66.132812 109.707031 66.726562 110.894531 66.003906 111.359375 C 64.417969 112.28125 62.769531 113.074219 60.988281 113.734375 C 61.054688 113.796875 61.054688 113.929688 61.054688 114.0625 C 61.054688 114.0625 61.121094 114.0625 61.121094 114.128906 C 61.1875 114.195312 61.320312 114.261719 61.382812 114.261719 C 61.582031 114.328125 61.78125 114.328125 61.976562 114.328125 C 62.507812 114.328125 62.96875 114.0625 63.429688 113.796875 C 64.550781 113.074219 65.671875 112.28125 66.792969 111.488281 C 67.058594 111.292969 67.519531 111.488281 67.71875 111.753906 C 67.914062 112.082031 67.71875 112.414062 67.453125 112.675781 C 66.726562 113.203125 66.003906 113.667969 65.277344 114.195312 C 65.277344 114.195312 65.210938 114.261719 65.210938 114.261719 C 65.410156 114.789062 66.597656 114.0625 66.925781 113.929688 C 67.585938 113.601562 68.179688 113.203125 68.707031 112.742188 C 69.828125 111.753906 70.820312 110.566406 71.742188 109.378906 C 71.941406 109.113281 72.335938 108.984375 72.664062 109.179688 C 72.796875 109.113281 72.996094 109.511719 72.730469 109.839844 Z M 72.730469 109.839844 " fill-opacity="1" fill-rule="nonzero"/><path fill="#e7ab85" d="M 20.019531 76.128906 C 22 70.390625 23.914062 65.839844 25.363281 62.738281 C 26.617188 59.96875 27.804688 57.59375 28.925781 53.964844 C 29.984375 50.46875 30.578125 47.5 30.839844 45.519531 C 30.640625 44.53125 30.445312 43.144531 30.179688 41.429688 C 29.324219 36.152344 27.9375 33.644531 29.125 32.523438 C 29.519531 32.195312 30.113281 31.996094 30.578125 32.128906 C 32.09375 32.722656 31.566406 37.667969 31.433594 37.667969 C 31.300781 37.667969 30.246094 32.128906 32.027344 31.269531 C 32.953125 30.875 34.335938 31.46875 34.929688 31.796875 C 35.261719 31.929688 36.25 32.390625 37.109375 33.511719 C 37.898438 34.4375 38.230469 35.359375 38.425781 35.886719 C 38.691406 36.746094 39.085938 38.59375 38.625 40.902344 C 38.097656 43.277344 36.910156 44.859375 36.25 45.519531 C 35.921875 49.410156 35.328125 53.566406 34.402344 58.054688 C 32.621094 66.894531 30.046875 74.546875 27.410156 80.878906 C 24.902344 79.164062 22.460938 77.648438 20.019531 76.128906 Z M 20.019531 76.128906 " fill-opacity="1" fill-rule="nonzero"/><path fill="#3f3d4a" d="M 28.664062 28.894531 C 27.804688 28.894531 27.804688 27.574219 28.664062 27.574219 C 29.519531 27.574219 29.519531 28.894531 28.664062 28.894531 Z M 38.359375 35.757812 C 38.425781 35.425781 38.492188 35.097656 38.492188 34.699219 C 38.492188 33.976562 38.296875 33.25 37.898438 32.65625 C 37.503906 32.128906 36.710938 31.535156 36.050781 31.929688 C 35.921875 31.535156 35.722656 31.136719 35.328125 30.875 C 34.796875 30.542969 34.203125 30.476562 33.675781 30.808594 C 33.480469 30.542969 33.148438 30.28125 32.753906 30.214844 C 32.09375 30.082031 31.433594 30.414062 31.039062 30.941406 C 30.578125 31.535156 30.511719 32.257812 30.445312 32.917969 C 30.3125 34.4375 30.3125 36.019531 30.511719 37.539062 C 30.640625 38.394531 31.894531 38.195312 31.828125 37.339844 C 31.699219 36.152344 31.632812 34.898438 31.699219 33.644531 C 31.699219 33.117188 31.765625 32.589844 31.894531 32.0625 C 31.960938 31.796875 32.226562 31.335938 32.554688 31.46875 C 32.953125 31.664062 32.820312 32.390625 32.820312 32.722656 C 32.820312 33.382812 32.753906 33.976562 32.753906 34.632812 C 32.6875 35.886719 32.621094 37.140625 32.554688 38.394531 C 32.554688 38.722656 32.753906 39.054688 33.148438 39.121094 C 33.480469 39.1875 33.875 38.921875 33.875 38.527344 C 33.941406 36.945312 34.007812 35.359375 34.074219 33.777344 C 34.074219 33.25 34.140625 32.589844 34.140625 31.996094 C 34.203125 31.929688 34.335938 31.863281 34.402344 31.796875 C 34.402344 31.796875 34.535156 31.796875 34.601562 31.863281 C 34.734375 31.929688 34.863281 32.128906 34.863281 32.324219 C 34.996094 32.917969 34.929688 33.578125 34.929688 34.171875 C 34.863281 35.558594 34.734375 37.007812 34.46875 38.394531 C 34.335938 39.253906 35.65625 39.382812 35.789062 38.59375 C 36.117188 36.8125 36.316406 34.964844 36.316406 33.117188 C 36.449219 33.117188 36.515625 33.117188 36.644531 33.117188 C 36.644531 33.117188 36.710938 33.117188 36.710938 33.183594 C 36.777344 33.25 36.84375 33.316406 36.976562 33.382812 C 37.109375 33.511719 37.171875 33.710938 37.238281 33.910156 C 37.371094 34.4375 37.304688 34.964844 37.238281 35.492188 C 36.976562 36.8125 36.578125 38.128906 36.25 39.449219 C 36.183594 39.78125 36.515625 40.175781 36.84375 40.175781 C 37.238281 40.242188 37.503906 39.976562 37.570312 39.582031 C 37.765625 38.722656 38.03125 37.867188 38.230469 37.007812 C 38.230469 37.007812 38.230469 36.945312 38.230469 36.945312 C 38.757812 36.945312 38.558594 38.328125 38.492188 38.660156 C 38.425781 39.382812 38.230469 40.042969 37.964844 40.769531 C 37.4375 42.15625 36.644531 43.472656 35.855469 44.792969 C 35.65625 45.125 35.65625 45.519531 35.984375 45.71875 C 36.25 45.914062 36.710938 45.914062 36.910156 45.585938 C 37.898438 44.003906 38.890625 42.285156 39.417969 40.503906 C 39.679688 39.582031 39.8125 38.660156 39.8125 37.734375 C 39.679688 36.945312 39.285156 35.886719 38.359375 35.757812 Z M 24.640625 63 C 22.726562 69.335938 16.855469 73.820312 16.394531 80.683594 C 16.328125 81.539062 17.644531 81.539062 17.710938 80.683594 C 18.109375 74.085938 24.046875 69.464844 25.894531 63.332031 C 26.15625 62.539062 24.835938 62.210938 24.640625 63 Z M 24.640625 63 " fill-opacity="1" fill-rule="nonzero"/><path fill="#e7ab85" d="M 48.917969 102.847656 C 47.992188 103.308594 45.75 104.167969 43.046875 103.769531 C 41.59375 103.574219 40.472656 103.046875 39.746094 102.648438 C 38.824219 108.058594 36.644531 111.953125 34.007812 112.214844 C 32.359375 112.414062 30.113281 111.226562 30.179688 110.171875 C 30.246094 109.246094 32.027344 108.652344 32.554688 108.519531 C 32.421875 107.203125 31.960938 100.738281 36.578125 95.460938 C 39.152344 92.554688 42.121094 91.238281 43.769531 90.644531 C 44.628906 91.171875 46.871094 92.6875 48.191406 95.589844 C 49.707031 98.957031 49.179688 101.925781 48.917969 102.847656 Z M 48.917969 102.847656 " fill-opacity="1" fill-rule="nonzero"/><path fill="#3f3d4a" d="M 30.640625 110.832031 C 30.640625 110.699219 30.707031 110.632812 30.839844 110.566406 C 31.105469 110.238281 31.300781 109.972656 31.566406 109.644531 C 31.632812 109.578125 31.699219 109.511719 31.765625 109.511719 C 31.828125 109.445312 31.894531 109.445312 32.027344 109.445312 C 32.09375 109.445312 32.226562 109.445312 32.292969 109.511719 C 32.359375 109.511719 32.421875 109.578125 32.488281 109.644531 C 32.621094 109.773438 32.6875 109.90625 32.6875 110.105469 C 32.6875 110.171875 32.6875 110.238281 32.6875 110.300781 C 32.6875 110.433594 32.621094 110.5 32.488281 110.566406 C 32.226562 110.894531 32.027344 111.160156 31.765625 111.488281 C 31.699219 111.554688 31.632812 111.621094 31.566406 111.621094 C 31.5 111.6875 31.433594 111.6875 31.300781 111.6875 C 31.234375 111.6875 31.105469 111.6875 31.039062 111.621094 C 30.972656 111.621094 30.90625 111.554688 30.839844 111.488281 C 30.707031 111.359375 30.640625 111.226562 30.640625 111.027344 Z M 42.320312 90.839844 C 44.695312 92.09375 46.542969 94.007812 47.664062 96.449219 C 48.851562 98.890625 49.445312 102.121094 48.257812 104.695312 C 47.925781 105.488281 49.046875 106.144531 49.378906 105.355469 C 50.761719 102.453125 50.234375 99.019531 48.980469 96.183594 C 47.730469 93.480469 45.617188 91.171875 42.980469 89.71875 C 42.253906 89.257812 41.59375 90.445312 42.320312 90.839844 Z M 32.160156 112.019531 C 32.226562 112.148438 32.421875 112.28125 32.554688 112.347656 C 32.621094 112.347656 32.753906 112.347656 32.820312 112.347656 C 32.886719 112.347656 33.015625 112.347656 33.082031 112.28125 C 33.214844 112.214844 33.347656 112.019531 33.414062 111.886719 C 33.414062 111.820312 33.414062 111.820312 33.480469 111.753906 C 33.546875 111.6875 33.546875 111.554688 33.609375 111.488281 C 33.675781 111.425781 33.742188 111.359375 33.808594 111.292969 C 33.941406 111.160156 34.007812 110.960938 34.007812 110.832031 C 34.007812 110.632812 33.941406 110.5 33.808594 110.367188 C 33.742188 110.300781 33.675781 110.238281 33.609375 110.238281 C 33.546875 110.171875 33.480469 110.171875 33.347656 110.171875 C 33.28125 110.171875 33.148438 110.171875 33.082031 110.238281 C 33.015625 110.238281 32.953125 110.300781 32.886719 110.367188 C 32.6875 110.5 32.554688 110.699219 32.421875 110.894531 C 32.359375 110.960938 32.359375 111.027344 32.292969 111.160156 C 32.226562 111.292969 32.160156 111.425781 32.160156 111.554688 C 32.027344 111.6875 32.09375 111.886719 32.160156 112.019531 Z M 32.160156 112.019531 " fill-opacity="1" fill-rule="nonzero"/></svg>