<svg xmlns="http://www.w3.org/2000/svg" xmlns:xlink="http://www.w3.org/1999/xlink" width="61" zoomAndPan="magnify" viewBox="0 0 45.75 69.749998" height="93" preserveAspectRatio="xMidYMid meet" version="1.0"><defs><clipPath id="0acd36ea08"><path d="M 5 0.0664062 L 33 0.0664062 L 33 31 L 5 31 Z M 5 0.0664062 " clip-rule="nonzero"/></clipPath><clipPath id="e61db9492f"><path d="M 2 13 L 36 13 L 36 69.4375 L 2 69.4375 Z M 2 13 " clip-rule="nonzero"/></clipPath></defs><path fill="#897212" d="M 0.0351562 45.15625 C 0.0507812 44.792969 0.0976562 44.410156 0.144531 44.046875 C 0.175781 43.679688 0.128906 43.285156 0.175781 42.917969 C 0.226562 42.554688 0.304688 42.171875 0.367188 41.808594 C 0.433594 41.441406 0.574219 41.078125 0.65625 40.710938 C 0.71875 40.347656 0.828125 39.980469 0.910156 39.617188 C 0.988281 39.25 1.050781 38.871094 1.132812 38.519531 C 1.210938 38.140625 1.195312 37.757812 1.289062 37.410156 C 1.386719 37.027344 1.464844 36.664062 1.546875 36.316406 C 1.640625 35.933594 1.863281 35.601562 1.960938 35.265625 C 2.070312 34.871094 2.183594 34.519531 2.277344 34.1875 C 2.40625 33.757812 2.4375 33.363281 2.515625 33.074219 C 2.578125 33.089844 2.976562 32.902344 3.550781 32.488281 C 3.820312 32.296875 4.105469 32.011719 4.457031 31.742188 C 4.742188 31.519531 5.09375 31.328125 5.425781 31.089844 C 5.730469 30.867188 6.046875 30.648438 6.367188 30.390625 C 6.667969 30.15625 6.90625 29.835938 7.226562 29.597656 C 7.527344 29.359375 7.859375 29.152344 8.179688 28.914062 C 8.480469 28.679688 8.769531 28.390625 9.070312 28.152344 C 9.386719 27.914062 9.722656 27.710938 10.023438 27.472656 C 10.34375 27.21875 10.644531 26.980469 10.949219 26.742188 C 11.265625 26.488281 11.601562 26.265625 11.886719 26.042969 C 12.21875 25.789062 12.476562 25.488281 12.761719 25.265625 C 13.109375 24.996094 13.507812 24.851562 13.761719 24.644531 C 14.335938 24.183594 13.714844 24.214844 14.050781 23.738281 C 14.382812 23.246094 14.558594 23.390625 14.78125 22.691406 C 14.894531 22.359375 14.988281 21.597656 15.289062 21.453125 C 15.625 21.359375 15.941406 21.453125 16.277344 21.566406 C 16.675781 21.691406 17.230469 21.929688 17.566406 22.007812 C 17.996094 22.105469 18.535156 21.675781 18.855469 21.722656 C 19.570312 21.820312 20.253906 21.960938 20.367188 22.515625 C 20.507812 23.199219 19.664062 23.566406 20.507812 23.660156 C 20.222656 24.011719 20.316406 24.4375 20.160156 24.773438 C 19.96875 25.167969 20.429688 25.4375 20.382812 25.804688 C 20.332031 26.234375 20.414062 26.375 20.507812 26.757812 C 20.605469 27.167969 20.128906 27.582031 20.316406 27.914062 C 20.539062 28.296875 20.761719 28.613281 21.019531 28.882812 C 21.496094 29.40625 21.589844 29.375 22.082031 29.742188 C 22.257812 29.867188 21.78125 30.089844 21.671875 30.265625 C 21.273438 30.296875 20.859375 30.296875 20.460938 30.359375 C 20.046875 30.425781 19.648438 30.535156 19.285156 30.613281 C 18.855469 30.695312 18.472656 30.835938 18.121094 30.949219 C 18.089844 30.949219 18.011719 31.375 17.835938 32.042969 C 17.742188 32.378906 17.535156 32.742188 17.421875 33.15625 C 17.328125 33.519531 17.214844 33.917969 17.121094 34.296875 C 17.023438 34.679688 16.992188 35.09375 16.898438 35.457031 C 16.785156 35.871094 16.691406 36.265625 16.609375 36.601562 C 16.4375 37.265625 16.261719 37.726562 16.230469 37.726562 C 16.230469 37.519531 15.894531 37.710938 15.371094 38.171875 C 15.132812 38.378906 14.910156 38.679688 14.621094 38.964844 C 14.382812 39.203125 14.050781 39.394531 13.78125 39.664062 C 13.539062 39.917969 13.316406 40.21875 13.0625 40.488281 C 12.808594 40.746094 12.886719 43.238281 12.632812 43.507812 C 12.378906 43.777344 11.089844 46.332031 11.089844 46.332031 C 11.089844 46.332031 11.441406 46.394531 12.125 46.378906 C 12.492188 46.378906 12.761719 46.03125 13.191406 46.03125 C 13.605469 46.03125 13.96875 46.140625 14.335938 46.15625 C 14.828125 46.175781 15.355469 46.476562 15.609375 46.523438 C 16.117188 46.648438 16.960938 47.347656 17.007812 47.667969 C 17.023438 47.839844 16.898438 48.015625 16.707031 48.160156 C 16.785156 48.207031 16.867188 48.238281 16.976562 48.285156 C 17.28125 48.398438 17.628906 48.570312 18.042969 48.730469 C 18.378906 48.855469 18.742188 48.953125 19.140625 49.09375 C 19.492188 49.222656 19.855469 49.316406 20.238281 49.460938 C 20.589844 49.585938 20.921875 49.792969 21.289062 49.9375 C 21.636719 50.0625 22.003906 50.191406 22.371094 50.332031 C 22.71875 50.460938 23.101562 50.554688 23.46875 50.683594 C 23.832031 50.808594 24.183594 50.984375 24.535156 51.113281 C 24.898438 51.238281 25.296875 51.285156 25.648438 51.414062 C 26.011719 51.539062 26.394531 51.621094 26.761719 51.746094 C 27.128906 51.875 27.476562 52.046875 27.828125 52.175781 C 28.191406 52.300781 28.542969 52.492188 28.894531 52.621094 C 29.273438 52.761719 29.65625 52.8125 30.007812 52.9375 C 30.386719 53.082031 30.722656 53.320312 31.054688 53.429688 C 31.46875 53.574219 31.867188 53.605469 32.1875 53.714844 C 32.789062 53.921875 33.09375 54.128906 33.203125 54.160156 C 33.507812 54.699219 33.425781 54.605469 33.679688 55.273438 C 33.808594 55.621094 34 55.984375 34.144531 56.414062 C 34.285156 56.796875 34.316406 57.222656 34.460938 57.605469 C 34.605469 58.019531 34.859375 58.367188 34.96875 58.734375 C 35.113281 59.242188 35.175781 59.683594 35.191406 59.9375 C 35.222656 60.414062 34.9375 60.703125 34.507812 60.78125 C 34.175781 60.84375 33.777344 60.75 33.363281 60.574219 C 33.027344 60.429688 32.664062 60.273438 32.359375 59.972656 C 32.203125 60.273438 32.027344 60.589844 31.773438 60.859375 C 31.535156 61.113281 31.199219 61.242188 30.816406 61.320312 C 30.515625 61.382812 30.179688 61.433594 29.769531 61.289062 C 29.480469 61.195312 29.164062 61.019531 28.8125 60.78125 C 28.367188 60.496094 28.019531 60.496094 27.761719 60.511719 C 27.382812 60.542969 27.175781 60.8125 26.953125 61.144531 C 26.746094 61.449219 26.492188 61.6875 26.171875 61.90625 C 25.917969 62.082031 25.617188 62.257812 25.136719 62.210938 C 24.613281 62.144531 24.230469 62.035156 23.929688 61.90625 C 23.453125 61.703125 23.148438 61.496094 22.832031 61.304688 C 22.546875 61.128906 22.242188 60.90625 21.652344 60.972656 C 20.96875 61.035156 21.003906 61.496094 20.9375 61.859375 C 20.875 62.210938 20.730469 62.449219 19.984375 62.398438 C 19.679688 62.382812 19.300781 62.320312 18.757812 62.160156 C 18.3125 62.035156 17.996094 61.925781 17.757812 61.828125 C 17.023438 61.511719 17.074219 61.320312 17.183594 61.128906 C 17.3125 60.921875 17.503906 60.859375 16.5625 60.75 C 15.925781 60.667969 15.671875 60.734375 15.53125 60.921875 C 15.304688 61.195312 15.402344 61.667969 14.972656 61.875 C 14.765625 61.988281 14.414062 61.972656 13.859375 61.925781 C 13.367188 61.875 13.015625 61.78125 12.746094 61.667969 C 12.234375 61.464844 12.03125 61.210938 11.839844 60.988281 C 11.632812 60.765625 11.441406 60.558594 10.820312 60.589844 C 10.4375 60.605469 10.105469 60.71875 9.832031 60.859375 C 9.5 61.035156 9.246094 61.289062 8.941406 61.382812 C 8.640625 61.480469 8.308594 61.449219 7.941406 61.195312 C 7.71875 61.050781 7.574219 60.75 7.304688 60.414062 C 7.304688 60.144531 7.273438 59.8125 7.304688 59.382812 C 7.335938 59.066406 7.367188 58.699219 7.398438 58.320312 C 7.433594 57.96875 7.367188 57.605469 7.398438 57.242188 C 7.433594 56.890625 7.589844 56.542969 7.636719 56.191406 C 7.6875 55.828125 7.65625 55.460938 7.6875 55.128906 C 7.703125 55.066406 7.703125 54.984375 7.703125 54.921875 C 7.433594 54.84375 7.160156 54.730469 6.890625 54.683594 C 6.523438 54.621094 6.144531 54.667969 5.777344 54.574219 C 5.410156 54.476562 5.078125 54.320312 4.726562 54.191406 C 4.378906 54.066406 4.027344 53.921875 3.710938 53.761719 C 3.375 53.605469 3.023438 53.445312 2.722656 53.238281 C 2.421875 53.03125 2.183594 52.730469 1.910156 52.476562 C 1.640625 52.222656 1.402344 51.953125 1.195312 51.652344 C 0.988281 51.351562 0.8125 51.03125 0.671875 50.699219 C 0.527344 50.382812 0.351562 50.03125 0.257812 49.652344 C 0.175781 49.300781 0.113281 48.9375 0.0664062 48.539062 C 0.0195312 48.175781 0.0351562 47.808594 0.0195312 47.414062 C 0.00390625 47.046875 -0.09375 46.683594 -0.078125 46.285156 C -0.046875 45.921875 0.0195312 45.539062 0.0351562 45.15625 Z M 27.285156 28.679688 C 27.300781 28.820312 30.199219 26.550781 30.4375 27.027344 C 30.675781 27.503906 33.570312 30.867188 33.570312 30.867188 C 33.570312 30.867188 28.972656 33.597656 29.273438 33.632812 C 29.59375 33.664062 27.285156 30.296875 27.285156 30.296875 Z M 44.164062 44.808594 C 46.152344 49.792969 40.96875 51.90625 38.375 51.191406 C 35.242188 50.316406 33.078125 42.746094 33.109375 41.871094 C 33.125 41.285156 33.617188 40.109375 34.796875 41.472656 C 33.921875 39.617188 35.128906 39.617188 36.003906 40.726562 C 35.128906 38.617188 36.769531 38.839844 37.515625 40.03125 C 36.511719 38.234375 37.148438 38.140625 37.914062 39.410156 C 37.148438 38.441406 38.582031 37.917969 39.789062 38.539062 C 39.964844 38.632812 40.21875 38.792969 40.394531 38.933594 C 40.664062 39.203125 42.289062 40.125 44.164062 44.808594 Z M 44.164062 44.808594 " fill-opacity="1" fill-rule="nonzero"/><g clip-path="url(#0acd36ea08)"><path fill="#f46e79" d="M 26.234375 27.660156 C 26.410156 27.949219 26.332031 28.234375 26.046875 28.472656 C 25.871094 28.613281 25.566406 28.582031 25.121094 28.613281 C 24.996094 29.3125 24.757812 29.550781 25.152344 29.933594 C 25.550781 30.3125 25.566406 30.074219 26.234375 30.121094 C 26.554688 30.15625 26.96875 30.074219 27.367188 30.105469 C 27.699219 30.136719 27.984375 30.171875 28.367188 30.21875 C 28.765625 30.105469 29.257812 29.964844 29.6875 29.664062 C 29.925781 29.40625 30.039062 28.980469 30.230469 28.582031 C 30.386719 28.25 30.546875 27.882812 30.675781 27.488281 C 30.785156 27.105469 30.882812 26.726562 30.960938 26.328125 C 31.039062 25.929688 31.089844 25.535156 31.152344 25.152344 C 31.214844 24.722656 31.328125 24.328125 31.375 23.976562 C 31.453125 23.265625 31.421875 23.390625 31.453125 22.789062 C 31.484375 22.214844 31.519531 22.375 31.566406 21.644531 C 31.582031 21.328125 31.535156 20.929688 31.566406 20.5 C 31.582031 20.152344 31.597656 19.769531 31.613281 19.359375 C 31.628906 18.992188 31.660156 18.613281 31.675781 18.214844 C 31.691406 17.851562 31.726562 17.46875 31.742188 17.070312 C 31.757812 16.707031 31.789062 16.324219 31.804688 15.929688 C 31.820312 15.546875 31.820312 15.167969 31.851562 14.785156 C 31.867188 14.40625 31.898438 14.023438 31.914062 13.640625 C 31.929688 13.261719 32.089844 12.894531 32.121094 12.5 C 32.136719 12.117188 32.027344 11.738281 32.042969 11.355469 C 32.058594 10.960938 32.171875 10.578125 32.121094 10.179688 C 32.074219 9.785156 31.964844 9.417969 31.867188 9.039062 C 31.773438 8.65625 31.613281 8.308594 31.453125 7.941406 C 31.3125 7.578125 31.152344 7.226562 30.960938 6.878906 C 30.769531 6.546875 30.578125 6.195312 30.355469 5.878906 C 30.132812 5.5625 29.957031 5.195312 29.703125 4.894531 C 29.449219 4.59375 29.148438 4.339844 28.859375 4.070312 C 28.574219 3.796875 28.289062 3.527344 27.984375 3.273438 C 27.683594 3.035156 27.300781 2.878906 26.96875 2.65625 C 26.648438 2.433594 26.332031 2.195312 25.980469 2.003906 C 25.648438 1.8125 25.328125 1.558594 24.964844 1.402344 C 24.613281 1.242188 24.246094 1.082031 23.867188 0.957031 C 23.5 0.828125 23.101562 0.734375 22.734375 0.640625 C 22.355469 0.527344 21.972656 0.464844 21.589844 0.402344 C 21.207031 0.335938 20.8125 0.257812 20.429688 0.210938 C 20.03125 0.179688 19.632812 0.257812 19.253906 0.257812 C 18.824219 0.226562 18.457031 0.0664062 18.089844 0.0664062 C 17.691406 0.0664062 17.328125 0.195312 16.976562 0.226562 C 16.59375 0.257812 16.199219 0.210938 15.847656 0.273438 C 15.464844 0.351562 15.117188 0.527344 14.78125 0.640625 C 14.414062 0.765625 14.066406 0.894531 13.746094 1.050781 C 13.398438 1.226562 13.078125 1.417969 12.777344 1.625 C 12.457031 1.847656 12.125 2.019531 11.855469 2.273438 C 11.582031 2.527344 11.359375 2.847656 11.136719 3.148438 C 10.898438 3.433594 10.644531 3.71875 10.4375 4.035156 C 10.246094 4.355469 10.167969 4.734375 10.007812 5.085938 C 9.851562 5.417969 9.609375 5.734375 9.484375 6.085938 C 9.355469 6.433594 9.277344 6.800781 9.164062 7.164062 C 9.070312 7.53125 9.054688 7.894531 8.976562 8.277344 C 8.894531 8.640625 8.753906 8.992188 8.6875 9.371094 C 8.625 9.738281 8.496094 10.101562 8.449219 10.46875 C 8.402344 10.832031 8.355469 11.214844 8.324219 11.578125 C 8.289062 11.960938 8.386719 12.339844 8.355469 12.707031 C 8.339844 13.085938 8.242188 13.453125 8.226562 13.816406 C 8.210938 14.199219 8.273438 14.578125 8.257812 14.945312 C 8.257812 15.355469 8.273438 15.753906 8.257812 16.136719 C 8.242188 16.546875 8.195312 16.945312 8.164062 17.324219 C 8.132812 17.738281 8.082031 18.136719 8.019531 18.515625 C 7.972656 18.929688 7.78125 19.292969 7.71875 19.675781 C 7.636719 20.089844 7.589844 20.484375 7.511719 20.851562 C 7.414062 21.261719 7.433594 21.675781 7.335938 22.042969 C 7.226562 22.453125 7.128906 22.851562 7.019531 23.199219 C 6.875 23.644531 6.699219 24.011719 6.589844 24.3125 C 6.300781 25.027344 5.492188 26.34375 6.015625 26.613281 C 6.558594 26.882812 6.652344 25.535156 7.257812 25.597656 C 7.859375 25.660156 7.859375 25.566406 8.464844 25.628906 C 9.070312 25.691406 9.070312 25.707031 9.660156 25.773438 C 10.261719 25.835938 10.246094 25.882812 10.851562 25.945312 C 11.457031 26.011719 11.457031 25.929688 12.0625 25.996094 C 12.664062 26.058594 12.648438 26.105469 13.253906 26.167969 C 13.859375 26.234375 14.035156 26.742188 14.464844 26.3125 C 14.796875 25.980469 14.082031 26.027344 13.746094 25.691406 C 13.414062 25.359375 13.238281 25.453125 13.0625 25.027344 C 12.886719 24.582031 13.429688 24.757812 13.828125 24.390625 C 14.050781 24.199219 14.003906 23.882812 14.257812 23.691406 C 14.511719 23.5 14.71875 23.074219 14.84375 22.804688 C 15.226562 21.960938 15.195312 21.898438 15.355469 21.515625 C 15.894531 21.3125 15.878906 21.613281 16.515625 21.804688 C 16.851562 21.914062 17.199219 22.023438 17.597656 22.136719 C 17.980469 22.230469 18.34375 22.4375 18.695312 22.5 C 19.140625 22.582031 19.855469 22.582031 19.855469 22.628906 C 19.871094 23.28125 19.808594 23.757812 20.160156 24.011719 C 20.015625 24.25 19.839844 24.675781 19.679688 25.121094 C 19.554688 25.488281 19.601562 25.851562 19.570312 26.25 C 19.554688 26.644531 19.679688 26.851562 19.871094 27.203125 C 20.414062 27.457031 20.109375 27.375 20.796875 27.34375 C 21.144531 27.328125 21.542969 27.265625 21.972656 27.234375 C 22.355469 27.21875 22.753906 27.105469 23.148438 27.089844 C 23.5625 27.074219 23.976562 27.058594 24.328125 27.042969 C 24.851562 27.011719 25.089844 27.28125 25.3125 27.28125 C 25.519531 27.34375 26.0625 27.34375 26.234375 27.660156 Z M 18.964844 22.058594 C 19.269531 21.960938 19.761719 22.3125 19.425781 22.3125 C 19.09375 22.3125 18.664062 22.167969 18.964844 22.058594 Z M 18.964844 22.058594 " fill-opacity="1" fill-rule="nonzero"/></g><path fill="#edac96" d="M 27.078125 18.023438 C 26.714844 18.308594 25.742188 18.183594 25.742188 18.183594 C 25.535156 18.53125 25.328125 18.898438 25.089844 19.261719 C 22.101562 22.660156 20.445312 20.914062 20.445312 20.914062 C 20.445312 20.914062 19.953125 21.882812 19.855469 22.628906 C 19.855469 22.628906 18.28125 22.835938 15.355469 21.515625 C 16.132812 18.945312 17.230469 15.039062 16.960938 14.277344 C 15.703125 13.578125 15.53125 11.800781 17.039062 11.214844 C 18.886719 10.5 19.410156 12.214844 19.410156 12.214844 C 19.410156 12.214844 23.675781 12.292969 27.414062 10.101562 C 27.414062 10.101562 28.449219 12.132812 26.777344 16.101562 C 26.777344 16.121094 26.953125 17.707031 27.078125 18.023438 Z M 25.265625 28.804688 C 25.265625 29.425781 25.21875 29.933594 25.203125 30.074219 C 24.929688 30.058594 24.613281 30.519531 24.34375 30.519531 C 23.945312 30.503906 23.453125 30.519531 23.085938 30.519531 C 22.6875 30.519531 22.402344 30.503906 22.050781 30.519531 C 21.878906 30.519531 21.828125 30.25 21.671875 30.265625 C 21.652344 30.25 21.589844 29.882812 21.589844 29.882812 C 21.589844 29.882812 17.566406 26.996094 20.476562 23.566406 C 21.144531 22.707031 22.226562 22.40625 22.226562 22.40625 C 22.226562 22.40625 22.082031 24.058594 23.816406 23.566406 C 23.898438 24.566406 24.3125 25.214844 24.882812 24.976562 C 25.042969 25.882812 24.726562 26.804688 25.550781 27.042969 C 26.664062 27.058594 27.746094 28.628906 25.265625 28.804688 Z M 30.4375 32.15625 C 30.4375 32.15625 29.910156 32.042969 29.195312 31.917969 C 28.84375 31.851562 28.414062 31.902344 27.96875 31.851562 C 27.589844 31.804688 27.175781 31.773438 26.761719 31.742188 C 26.363281 31.710938 25.949219 31.664062 25.535156 31.679688 C 25.121094 31.695312 24.757812 31.742188 24.375 31.804688 C 24.34375 32.25 24.214844 32.632812 24.183594 32.996094 C 24.136719 33.726562 24.183594 34.203125 24.183594 34.203125 C 24.183594 34.203125 24.613281 34.234375 25.34375 34.296875 C 25.695312 34.328125 26.109375 34.488281 26.554688 34.519531 C 26.9375 34.550781 27.351562 34.535156 27.777344 34.566406 C 28.191406 34.601562 28.589844 34.617188 29.003906 34.648438 C 29.433594 34.679688 29.863281 34.695312 30.246094 34.726562 C 30.164062 34.363281 30.199219 33.871094 30.246094 33.441406 C 30.292969 32.773438 30.4375 32.15625 30.4375 32.15625 Z M 27.96875 24.40625 C 26.777344 22.804688 27.367188 21.738281 28.414062 22.992188 C 26.746094 21.152344 28.289062 20.851562 29.273438 22.183594 C 29.019531 20.960938 31.261719 21.753906 33.078125 24.851562 C 33.699219 25.042969 34.828125 25.105469 35.75 31.3125 C 35.796875 31.664062 37.882812 35.410156 39.773438 38.539062 C 38.964844 38.203125 38.628906 39.109375 39.152344 39.980469 C 38.34375 38.949219 37.054688 39.1875 37.992188 40.871094 C 37.246094 39.695312 35.71875 39.472656 36.59375 41.585938 C 35.71875 40.472656 34.382812 40.441406 35.257812 42.300781 C 34.078125 40.933594 33.585938 41.394531 33.554688 41.984375 C 32.617188 39.523438 31.675781 36.363281 30.691406 32.410156 C 30.261719 30.550781 28.351562 27.3125 27.398438 25.820312 C 26.394531 24.265625 26.730469 22.976562 27.96875 24.40625 Z M 23.515625 51.351562 C 21.003906 51.0625 17.535156 51.316406 16.386719 51.605469 C 16.515625 51.460938 16.59375 51.269531 16.59375 51.097656 C 16.609375 50.730469 16.386719 50.332031 15.769531 50.113281 C 15.769531 50.113281 16.722656 50.09375 16.707031 49.367188 C 16.707031 49.015625 16.515625 48.617188 15.878906 48.445312 C 16.421875 48.316406 16.644531 47.984375 16.59375 47.652344 C 16.578125 47.460938 16.421875 47.222656 16.230469 47.078125 C 17.136719 47.078125 18.695312 46.585938 19.21875 46.09375 C 19.921875 45.445312 23.199219 44.15625 24.835938 43.871094 C 26.476562 43.585938 27.859375 44.714844 25.441406 45.730469 C 28.734375 45.570312 29.546875 45.601562 30.261719 45.648438 C 31.261719 45.699219 32.980469 46.792969 30.785156 47.09375 C 33.15625 47.03125 34 49.046875 31.105469 48.875 C 32.996094 49.667969 31.359375 50.128906 29.480469 50.160156 C 31.199219 50.890625 26.617188 51.699219 23.515625 51.351562 Z M 23.515625 51.351562 " fill-opacity="1" fill-rule="nonzero"/><path fill="#1629aa" d="M 11.3125 32.648438 C 11.394531 32.140625 11.617188 31.710938 11.933594 31.3125 C 12.125 31.074219 12.253906 30.773438 12.492188 30.566406 C 12.714844 30.359375 12.984375 30.203125 13.238281 30.027344 C 13.652344 29.742188 14.128906 29.488281 14.636719 29.34375 C 14.65625 29.34375 14.671875 29.328125 14.703125 29.328125 C 15.003906 29.203125 15.324219 29.105469 15.640625 29.121094 C 15.976562 29.136719 16.277344 29.375 16.5625 29.519531 C 16.867188 29.679688 17.199219 29.789062 17.40625 30.058594 C 17.613281 30.3125 17.691406 30.664062 17.773438 30.996094 C 17.851562 31.359375 17.835938 31.679688 17.773438 32.011719 C 17.691406 32.34375 17.566406 32.648438 17.359375 32.933594 C 17.167969 33.21875 16.929688 33.457031 16.660156 33.679688 C 16.386719 33.902344 16.132812 34.140625 15.816406 34.28125 C 15.496094 34.425781 15.164062 34.566406 14.796875 34.679688 C 14.449219 34.789062 14.082031 34.871094 13.714844 34.886719 C 13.351562 34.902344 12.953125 34.917969 12.617188 34.789062 C 12.285156 34.679688 11.996094 34.425781 11.742188 34.140625 C 11.378906 33.742188 11.234375 33.21875 11.3125 32.648438 Z M 11.726562 33.3125 C 11.902344 33.835938 12.394531 34.265625 12.921875 34.410156 C 13.253906 34.503906 13.605469 34.425781 13.9375 34.378906 C 14.273438 34.328125 14.605469 34.234375 14.925781 34.125 C 15.289062 33.996094 15.6875 33.855469 16.039062 33.632812 C 16.386719 33.410156 16.722656 33.171875 16.976562 32.851562 C 17.214844 32.535156 17.328125 32.15625 17.359375 31.726562 C 17.390625 31.410156 17.421875 31.074219 17.296875 30.789062 C 17.167969 30.503906 16.914062 30.265625 16.675781 30.074219 C 16.40625 29.867188 16.085938 29.789062 15.753906 29.757812 C 15.417969 29.726562 15.101562 29.726562 14.78125 29.851562 C 14.703125 29.882812 14.636719 29.867188 14.589844 29.835938 C 14.273438 29.964844 13.953125 30.15625 13.667969 30.359375 C 13.316406 30.597656 13.015625 30.882812 12.746094 31.171875 C 12.476562 31.441406 12.203125 31.773438 12.011719 32.15625 C 11.789062 32.503906 11.582031 32.902344 11.726562 33.3125 Z M 11.726562 33.3125 " fill-opacity="1" fill-rule="nonzero"/><g clip-path="url(#e61db9492f)"><path fill="#0a0d30" d="M 11.089844 45.523438 C 11.136719 45.175781 11.265625 44.761719 11.328125 44.300781 C 11.378906 43.917969 11.410156 43.507812 11.457031 43.078125 C 11.503906 42.679688 11.535156 42.269531 11.582031 41.855469 C 11.632812 41.457031 11.648438 41.046875 11.695312 40.617188 C 11.742188 40.203125 11.773438 39.792969 11.824219 39.394531 C 11.871094 38.980469 11.980469 38.585938 12.011719 38.171875 C 12.125 37.808594 12.21875 37.425781 12.332031 37.042969 C 12.441406 36.664062 12.585938 36.296875 12.679688 35.917969 C 12.777344 35.535156 12.839844 35.140625 12.90625 34.757812 C 12.96875 34.363281 13.175781 34.234375 13.460938 34.203125 C 13.796875 34.15625 14.175781 34.25 14.351562 34.347656 C 14.351562 33.820312 14.542969 33.566406 14.75 33.410156 C 15.082031 33.15625 15.546875 33.21875 15.769531 33.410156 C 15.671875 32.917969 15.671875 32.535156 15.894531 32.359375 C 16.117188 32.1875 16.5625 32.21875 16.976562 32.25 C 16.628906 31.804688 16.5 31.410156 16.628906 31.089844 C 16.738281 30.773438 17.054688 30.535156 17.628906 30.441406 C 18.1875 30.328125 18.027344 30.328125 18.742188 30.21875 C 19.0625 30.171875 19.425781 30.089844 19.855469 30.042969 C 20.191406 30.011719 20.574219 29.996094 20.984375 29.964844 C 21.335938 29.933594 21.71875 29.851562 22.117188 29.835938 C 22.480469 29.820312 22.847656 29.804688 23.246094 29.804688 C 23.609375 29.804688 23.976562 29.933594 24.375 29.949219 C 24.742188 29.949219 25.121094 29.980469 25.503906 29.996094 C 25.871094 30.011719 26.253906 29.933594 26.632812 29.964844 C 27 29.996094 27.382812 30.027344 27.761719 30.074219 C 28.128906 30.121094 28.511719 30.171875 28.894531 30.21875 C 29.257812 30.265625 29.5625 30.3125 29.941406 30.375 C 30.117188 30.628906 30.371094 31.042969 30.5625 31.472656 C 30.707031 31.804688 30.867188 32.171875 31.007812 32.566406 C 31.136719 32.917969 31.277344 33.296875 31.40625 33.679688 C 31.519531 34.042969 31.519531 34.457031 31.644531 34.839844 C 31.757812 35.21875 31.898438 35.585938 32.011719 35.964844 C 32.121094 36.347656 32.203125 36.742188 32.3125 37.109375 C 32.425781 37.503906 32.566406 37.871094 32.679688 38.234375 C 32.789062 38.632812 32.886719 39.03125 32.996094 39.378906 C 33.125 39.808594 33.332031 40.171875 33.441406 40.472656 C 33.570312 40.808594 33.617188 41.140625 33.730469 41.523438 C 33.648438 41.632812 33.585938 41.824219 33.585938 41.984375 C 33.570312 42.492188 34.160156 45.585938 35.273438 47.984375 C 35.273438 48.222656 35.257812 48.175781 35.242188 48.445312 C 35.222656 48.792969 35.066406 49.160156 35.019531 49.554688 C 34.96875 49.921875 34.953125 50.285156 34.875 50.667969 C 34.796875 51.015625 34.636719 51.367188 34.507812 51.730469 C 34.382812 52.082031 34.367188 52.476562 34.207031 52.828125 C 34.046875 53.160156 33.746094 53.429688 33.539062 53.746094 C 33.332031 54.050781 33.109375 54.351562 32.839844 54.621094 C 32.582031 54.890625 32.3125 55.144531 32.011719 55.382812 C 31.726562 55.605469 31.484375 55.9375 31.152344 56.128906 C 30.832031 56.304688 30.4375 56.351562 30.070312 56.492188 C 29.734375 56.621094 29.402344 56.796875 29.019531 56.890625 C 28.671875 56.984375 28.289062 57.003906 27.90625 57.066406 C 27.554688 57.113281 27.175781 57.128906 26.792969 57.144531 C 26.410156 57.128906 26.027344 57.222656 25.664062 57.191406 C 25.28125 57.160156 24.898438 57.082031 24.550781 57.035156 C 24.167969 56.984375 23.785156 56.9375 23.4375 56.875 C 23.054688 56.796875 22.671875 56.730469 22.324219 56.636719 C 21.941406 56.542969 21.574219 56.429688 21.242188 56.320312 C 20.875 56.191406 20.554688 55.9375 20.222656 55.796875 C 19.855469 55.636719 19.476562 55.574219 19.15625 55.414062 C 18.789062 55.238281 18.457031 55.066406 18.15625 54.890625 C 17.789062 54.683594 17.46875 54.476562 17.199219 54.289062 C 16.867188 54.050781 16.609375 53.828125 16.421875 53.667969 C 16.738281 53.507812 17.152344 53.191406 17.039062 52.746094 C 16.898438 52.207031 16.246094 52.015625 15.976562 51.953125 C 16.039062 51.890625 16.261719 51.746094 16.421875 51.554688 C 17.566406 51.269531 20.8125 50.523438 23.324219 50.808594 C 26.425781 51.160156 30.292969 50.761719 28.589844 50.046875 C 30.46875 50.03125 31.996094 49.429688 30.101562 48.636719 C 32.996094 48.808594 32.234375 47.09375 29.863281 47.160156 C 32.058594 46.839844 31.183594 46.015625 30.199219 45.96875 C 29.480469 45.9375 27.828125 45.777344 24.535156 45.9375 C 26.953125 44.917969 26.570312 43.839844 24.929688 44.125 C 23.292969 44.410156 20.351562 45.921875 19.648438 46.570312 C 19.125 47.0625 17.246094 47.125 16.324219 47.140625 C 16.179688 47.046875 15.992188 46.953125 15.785156 46.90625 C 15.53125 46.839844 15.101562 46.761719 14.605469 46.730469 C 14.242188 46.714844 13.828125 46.730469 13.414062 46.730469 C 13 46.730469 12.585938 46.667969 12.21875 46.667969 C 11.550781 46.683594 11.617188 46.714844 11.074219 46.714844 C 11.074219 46.714844 11.105469 46.714844 11.105469 46.699219 C 11.058594 46.683594 11.089844 45.539062 11.089844 45.523438 Z M 24.484375 34.089844 C 24.484375 34.089844 24.867188 34.125 25.519531 34.171875 C 25.839844 34.1875 26.203125 34.328125 26.601562 34.363281 C 26.953125 34.394531 27.316406 34.378906 27.699219 34.410156 C 28.066406 34.441406 28.429688 34.457031 28.796875 34.472656 C 29.179688 34.503906 29.578125 34.519531 29.910156 34.550781 C 29.832031 34.25 29.863281 33.855469 29.894531 33.503906 C 29.957031 32.964844 30.085938 32.457031 30.085938 32.457031 C 30.085938 32.457031 29.625 32.359375 28.972656 32.25 C 28.652344 32.203125 28.273438 32.234375 27.875 32.1875 C 27.523438 32.140625 27.160156 32.105469 26.777344 32.089844 C 26.410156 32.074219 26.046875 32.027344 25.679688 32.027344 C 25.296875 32.027344 24.980469 32.074219 24.628906 32.125 C 24.597656 32.488281 24.484375 32.789062 24.46875 33.105469 C 24.4375 33.710938 24.484375 34.089844 24.484375 34.089844 Z M 2.578125 31.996094 C 2.609375 31.679688 2.644531 31.296875 2.722656 30.902344 C 2.785156 30.566406 2.800781 30.1875 2.914062 29.804688 C 3.023438 29.472656 3.214844 29.136719 3.359375 28.789062 C 3.503906 28.457031 3.726562 28.152344 3.898438 27.835938 C 4.074219 27.519531 4.28125 27.21875 4.503906 26.929688 C 4.726562 26.644531 4.871094 26.28125 5.140625 26.027344 C 5.394531 25.773438 5.730469 25.597656 6.046875 25.390625 C 6.351562 25.199219 6.636719 24.960938 6.984375 24.820312 C 7.320312 24.691406 7.671875 24.535156 8.035156 24.46875 C 8.402344 24.390625 8.769531 24.34375 9.132812 24.28125 C 9.515625 24.214844 9.882812 24.167969 10.230469 24.121094 C 10.613281 24.074219 10.980469 24.042969 11.328125 23.992188 C 11.726562 23.945312 12.09375 24.011719 12.441406 23.976562 C 12.855469 23.945312 13.109375 23.804688 13.476562 23.582031 C 14.128906 23.4375 14.382812 23.582031 14.382812 23.582031 C 14.382812 23.582031 14.894531 24.230469 15.101562 24.882812 C 15.210938 25.199219 15.289062 25.597656 15.386719 25.996094 C 15.480469 26.359375 15.496094 26.757812 15.5625 27.121094 C 15.625 27.519531 15.671875 27.882812 15.6875 28.25 C 15.71875 28.695312 15.769531 29.152344 15.640625 29.503906 C 15.511719 29.882812 15.242188 30.15625 14.671875 30.121094 C 14.84375 30.472656 14.621094 30.867188 14.289062 31.140625 C 13.96875 31.394531 13.605469 31.582031 13.238281 31.410156 C 13.269531 31.917969 13.078125 32.3125 12.90625 32.679688 C 12.699219 33.125 12.394531 33.488281 11.886719 33.488281 C 11.648438 33.566406 11.234375 33.503906 10.726562 33.519531 C 10.375 33.535156 9.976562 33.617188 9.5625 33.617188 C 9.199219 33.617188 8.800781 33.597656 8.386719 33.566406 C 8.003906 33.550781 7.605469 33.535156 7.226562 33.503906 C 6.828125 33.488281 6.445312 33.378906 6.0625 33.34375 C 5.648438 33.3125 5.269531 33.34375 4.886719 33.3125 C 4.457031 33.28125 4.058594 33.1875 3.726562 33.15625 C 3.089844 33.089844 2.609375 33.125 2.515625 33.109375 C 2.453125 32.949219 2.515625 32.535156 2.578125 31.996094 Z M 9.484375 54.890625 C 9.5625 54.921875 10.023438 54.859375 10.660156 54.796875 C 11.011719 54.746094 11.425781 54.761719 11.839844 54.714844 C 12.21875 54.667969 12.617188 54.574219 13 54.523438 C 13.414062 54.460938 13.8125 54.445312 14.175781 54.398438 C 14.65625 54.335938 15.019531 54.238281 15.304688 54.191406 C 15.339844 54.558594 15.355469 54.90625 15.402344 55.289062 C 15.433594 55.652344 15.511719 56.035156 15.546875 56.414062 C 15.578125 56.78125 15.5625 57.160156 15.59375 57.542969 C 15.625 57.90625 15.703125 58.289062 15.734375 58.667969 C 15.785156 59.050781 15.941406 59.414062 15.976562 59.78125 C 16.023438 60.160156 15.957031 60.542969 15.992188 60.921875 C 16.039062 61.304688 16.085938 61.6875 16.117188 62.050781 C 16.164062 62.433594 16.230469 62.8125 16.277344 63.179688 C 16.324219 63.558594 16.371094 63.941406 16.421875 64.304688 C 16.46875 64.703125 16.53125 65.066406 16.578125 65.433594 C 16.628906 65.828125 16.628906 66.210938 16.675781 66.558594 C 16.722656 66.988281 16.816406 67.355469 16.851562 67.6875 C 16.914062 68.304688 16.945312 68.71875 16.929688 68.832031 C 16.914062 68.957031 16.4375 69.003906 15.847656 69.101562 C 15.546875 69.148438 15.179688 69.195312 14.78125 69.226562 C 14.449219 69.257812 14.097656 69.386719 13.714844 69.402344 C 13.367188 69.417969 13 69.433594 12.632812 69.433594 C 12.269531 69.433594 11.902344 69.433594 11.550781 69.433594 C 11.171875 69.433594 10.820312 69.417969 10.46875 69.386719 C 10.074219 69.355469 9.707031 69.273438 9.40625 69.226562 C 8.894531 69.132812 8.511719 69.003906 8.417969 68.816406 C 8.339844 68.671875 8.289062 68.242188 8.289062 67.65625 C 8.289062 67.320312 8.433594 66.925781 8.449219 66.496094 C 8.464844 66.132812 8.449219 65.75 8.480469 65.335938 C 8.511719 64.972656 8.5625 64.574219 8.59375 64.179688 C 8.625 63.796875 8.609375 63.402344 8.640625 63.019531 C 8.671875 62.636719 8.71875 62.242188 8.769531 61.859375 C 8.800781 61.480469 8.753906 61.082031 8.800781 60.6875 C 8.832031 60.289062 8.976562 59.90625 9.023438 59.542969 C 9.070312 59.144531 9.007812 58.75 9.054688 58.367188 C 9.101562 57.953125 9.164062 57.574219 9.199219 57.207031 C 9.246094 56.78125 9.261719 56.382812 9.292969 56.050781 C 9.421875 55.335938 9.308594 55.445312 9.484375 54.890625 Z M 23.371094 15.5625 C 23.4375 15.53125 23.5625 15.546875 23.59375 15.628906 C 23.628906 15.691406 23.660156 15.753906 23.691406 15.785156 C 23.707031 15.816406 23.738281 15.832031 23.753906 15.847656 C 23.753906 15.847656 23.769531 15.847656 23.769531 15.863281 C 23.769531 15.863281 23.769531 15.863281 23.785156 15.863281 C 23.800781 15.882812 23.816406 15.882812 23.816406 15.898438 C 23.851562 15.914062 23.867188 15.929688 23.898438 15.945312 C 23.914062 15.945312 23.914062 15.960938 23.898438 15.945312 C 23.898438 15.945312 23.914062 15.945312 23.914062 15.960938 C 23.929688 15.960938 23.945312 15.976562 23.960938 15.976562 C 23.992188 15.992188 24.023438 15.992188 24.054688 15.992188 C 24.074219 15.992188 24.089844 15.992188 24.089844 15.992188 L 24.121094 15.992188 C 24.261719 16.007812 24.34375 15.992188 24.484375 15.945312 L 24.519531 15.929688 C 24.535156 15.929688 24.550781 15.914062 24.566406 15.914062 C 24.582031 15.898438 24.597656 15.898438 24.613281 15.882812 L 24.628906 15.863281 C 24.613281 15.882812 24.613281 15.882812 24.628906 15.863281 C 24.660156 15.847656 24.675781 15.816406 24.691406 15.800781 C 24.707031 15.769531 24.726562 15.769531 24.742188 15.738281 C 24.851562 15.5625 25.121094 15.722656 25.011719 15.898438 C 24.996094 15.929688 24.964844 15.960938 24.949219 15.992188 C 25.042969 16.054688 25.152344 16.121094 25.25 16.199219 C 25.28125 16.214844 25.3125 16.246094 25.328125 16.292969 C 25.34375 16.324219 25.328125 16.390625 25.3125 16.421875 C 25.296875 16.453125 25.265625 16.484375 25.21875 16.5 C 25.171875 16.515625 25.136719 16.5 25.089844 16.484375 C 24.964844 16.40625 24.835938 16.324219 24.726562 16.230469 C 24.707031 16.230469 24.707031 16.214844 24.707031 16.214844 C 24.230469 16.46875 23.53125 16.324219 23.308594 15.800781 C 23.277344 15.707031 23.292969 15.609375 23.371094 15.5625 Z M 21.910156 18.054688 C 21.878906 17.976562 21.941406 17.882812 22.019531 17.867188 C 22.117188 17.851562 22.179688 17.898438 22.210938 17.976562 L 22.210938 17.992188 C 22.210938 18.007812 22.226562 18.023438 22.226562 18.039062 C 22.242188 18.054688 22.242188 18.089844 22.257812 18.105469 C 22.289062 18.152344 22.304688 18.199219 22.339844 18.246094 C 22.339844 18.261719 22.355469 18.261719 22.355469 18.277344 L 22.371094 18.292969 C 22.386719 18.308594 22.402344 18.324219 22.417969 18.359375 C 22.449219 18.40625 22.496094 18.4375 22.546875 18.46875 C 22.5625 18.484375 22.578125 18.5 22.609375 18.515625 C 22.609375 18.515625 22.625 18.515625 22.625 18.53125 C 22.640625 18.546875 22.65625 18.546875 22.65625 18.5625 C 22.703125 18.597656 22.753906 18.628906 22.800781 18.644531 C 22.832031 18.660156 22.847656 18.675781 22.878906 18.675781 C 22.878906 18.675781 22.894531 18.691406 22.910156 18.691406 C 22.925781 18.691406 22.925781 18.691406 22.941406 18.707031 C 22.992188 18.722656 23.054688 18.738281 23.101562 18.753906 C 23.179688 18.769531 23.246094 18.867188 23.214844 18.945312 C 23.179688 19.023438 23.101562 19.074219 23.023438 19.054688 C 22.511719 18.914062 22.101562 18.53125 21.910156 18.054688 Z M 25.328125 13.960938 C 25.3125 13.960938 25.3125 13.960938 25.296875 13.945312 C 25.265625 13.945312 25.25 13.929688 25.21875 13.929688 C 25.21875 13.929688 25.21875 13.929688 25.203125 13.929688 C 25.1875 13.929688 25.171875 13.929688 25.171875 13.929688 C 25.152344 13.929688 25.121094 13.929688 25.105469 13.929688 C 25.089844 13.929688 25.074219 13.929688 25.058594 13.929688 C 25.027344 13.929688 25.011719 13.945312 24.980469 13.945312 C 24.898438 13.960938 24.804688 13.914062 24.789062 13.832031 C 24.773438 13.753906 24.820312 13.660156 24.898438 13.640625 C 25.152344 13.5625 25.441406 13.609375 25.648438 13.769531 C 25.679688 13.800781 25.710938 13.816406 25.726562 13.863281 C 25.742188 13.894531 25.726562 13.960938 25.710938 13.992188 C 25.664062 14.054688 25.566406 14.101562 25.488281 14.054688 C 25.472656 14.039062 25.441406 14.023438 25.425781 14.007812 C 25.410156 14.007812 25.410156 13.992188 25.394531 13.992188 C 25.394531 13.992188 25.394531 13.992188 25.378906 13.992188 C 25.34375 13.976562 25.328125 13.960938 25.328125 13.960938 Z M 21.621094 24.121094 C 21.703125 24.121094 21.796875 24.183594 21.78125 24.28125 C 21.765625 24.34375 21.765625 24.40625 21.78125 24.46875 C 21.78125 24.46875 21.78125 24.484375 21.78125 24.503906 C 21.78125 24.519531 21.78125 24.535156 21.796875 24.550781 C 21.796875 24.582031 21.8125 24.613281 21.828125 24.628906 L 21.828125 24.644531 C 21.828125 24.660156 21.84375 24.675781 21.84375 24.691406 C 21.859375 24.722656 21.878906 24.742188 21.894531 24.773438 C 21.894531 24.773438 21.925781 24.804688 21.910156 24.789062 C 21.925781 24.804688 21.925781 24.820312 21.941406 24.820312 C 21.957031 24.835938 21.988281 24.867188 22.003906 24.882812 C 22.003906 24.882812 22.003906 24.882812 22.019531 24.882812 C 22.019531 24.882812 22.019531 24.882812 22.035156 24.882812 C 22.050781 24.898438 22.066406 24.898438 22.082031 24.914062 C 22.117188 24.929688 22.132812 24.945312 22.164062 24.960938 C 22.179688 24.960938 22.179688 24.960938 22.164062 24.960938 C 22.164062 24.960938 22.179688 24.960938 22.179688 24.976562 C 22.195312 24.976562 22.210938 24.996094 22.210938 24.996094 C 22.242188 25.011719 22.273438 25.011719 22.304688 25.011719 L 22.324219 25.011719 C 22.324219 25.011719 22.324219 25.011719 22.339844 25.011719 C 22.355469 25.011719 22.371094 25.011719 22.386719 25.011719 C 22.417969 25.011719 22.449219 25.011719 22.480469 25.011719 L 22.496094 25.011719 C 22.496094 25.011719 22.496094 25.011719 22.511719 25.011719 C 22.527344 25.011719 22.546875 25.011719 22.5625 24.996094 C 22.59375 24.996094 22.625 24.976562 22.65625 24.960938 C 22.734375 24.929688 22.832031 24.996094 22.847656 25.074219 C 22.863281 25.167969 22.816406 25.234375 22.734375 25.265625 C 22.433594 25.375 22.066406 25.3125 21.8125 25.105469 C 21.574219 24.914062 21.429688 24.582031 21.480469 24.265625 C 21.464844 24.199219 21.527344 24.121094 21.621094 24.121094 Z M 20.429688 26.28125 C 20.429688 26.265625 20.445312 26.25 20.460938 26.234375 C 20.476562 26.21875 20.476562 26.21875 20.492188 26.199219 C 20.523438 26.183594 20.539062 26.183594 20.574219 26.183594 C 20.589844 26.183594 20.605469 26.183594 20.621094 26.183594 C 20.652344 26.183594 20.667969 26.199219 20.683594 26.234375 C 20.730469 26.28125 20.761719 26.3125 20.8125 26.359375 C 20.828125 26.375 20.84375 26.390625 20.84375 26.40625 C 20.859375 26.421875 20.859375 26.4375 20.859375 26.472656 C 20.859375 26.488281 20.859375 26.519531 20.84375 26.535156 C 20.84375 26.550781 20.828125 26.566406 20.8125 26.582031 C 20.796875 26.597656 20.796875 26.597656 20.777344 26.613281 C 20.746094 26.628906 20.730469 26.628906 20.699219 26.628906 C 20.683594 26.628906 20.667969 26.628906 20.652344 26.628906 C 20.621094 26.628906 20.605469 26.613281 20.589844 26.582031 C 20.539062 26.535156 20.507812 26.503906 20.460938 26.453125 C 20.445312 26.4375 20.429688 26.421875 20.429688 26.40625 C 20.414062 26.390625 20.414062 26.375 20.414062 26.34375 C 20.414062 26.3125 20.414062 26.296875 20.429688 26.28125 Z M 20.429688 26.28125 " fill-opacity="1" fill-rule="nonzero"/></g></svg>