<svg xmlns="http://www.w3.org/2000/svg" xmlns:xlink="http://www.w3.org/1999/xlink" width="120" zoomAndPan="magnify" viewBox="0 0 90 119.999999" height="160" preserveAspectRatio="xMidYMid meet" version="1.0"><path fill="#be6e15" d="M 41.492188 38.109375 C 25.652344 48.109375 19.71875 72.894531 19.71875 72.894531 L 22.84375 116.46875 C 42.976562 119.847656 69.066406 116.035156 69.066406 116.035156 C 69.679688 107.042969 68.289062 83.804688 68.289062 83.804688 C 75.457031 81.910156 81.9375 76.546875 81.9375 76.546875 C 81.9375 76.546875 80.910156 70.15625 71.300781 51.144531 C 61.691406 32.132812 53.15625 30.238281 52.242188 30.101562 C 52.265625 30.101562 47.539062 26.265625 41.492188 38.109375 Z M 41.492188 38.109375 " fill-opacity="1" fill-rule="nonzero"/><path fill="#0a0d30" d="M 32.773438 43.042969 C 33.230469 40.78125 28.460938 36.035156 22.84375 36.582031 C 17.230469 37.128906 16.316406 42.3125 15.472656 42.609375 C 14.332031 42.539062 13.097656 44.089844 14.628906 45.507812 C 12.847656 45.804688 12.960938 48.335938 14.992188 48.109375 C 12.9375 48.335938 12.9375 50.460938 14.992188 50.757812 C 14.261719 50.9375 14.082031 51.667969 14.082031 51.667969 L 17.527344 52.445312 C 17.527344 52.445312 20.882812 53.0625 25.972656 50.230469 C 31.0625 47.402344 32.773438 43.042969 32.773438 43.042969 Z M 41.195312 25.71875 C 37.589844 27.203125 21.839844 20.765625 18.027344 20.832031 C 14.21875 20.902344 11.523438 19.625 14.695312 15.8125 C 17.890625 12.023438 22.410156 5.242188 28.207031 6.429688 C 28.207031 6.429688 31.105469 4.742188 37.042969 8.347656 C 44.070312 12.617188 44.527344 22.683594 45.488281 23.550781 C 45.488281 23.550781 44.800781 24.234375 41.195312 25.71875 Z M 41.195312 25.71875 " fill-opacity="1" fill-rule="nonzero"/><path fill="#efa355" d="M 44.253906 23.136719 C 42.0625 23.414062 39.871094 23.136719 39.6875 21.472656 C 41.082031 19.097656 37.40625 16.839844 35.375 19.464844 C 35.375 19.464844 27.089844 13.847656 24.695312 15.492188 C 22.480469 17 20.675781 18.230469 18.257812 19.441406 C 15.746094 20.695312 16.546875 26.949219 19.398438 32.199219 C 19.238281 33.226562 18.667969 34.300781 19.46875 34.871094 C 19.992188 35.257812 20.5625 35.121094 21.066406 34.777344 C 24.625 39.570312 30.171875 42.585938 36.722656 38.25 C 36.722656 38.25 39.277344 41.285156 40.832031 42.609375 C 46.285156 34.550781 52.289062 30.101562 52.289062 30.101562 C 52.289062 30.101562 46.445312 22.863281 44.253906 23.136719 Z M 44.253906 23.136719 " fill-opacity="1" fill-rule="nonzero"/><path fill="#706009" d="M 69.222656 110.257812 C 69.222656 109.574219 69.222656 108.890625 69.222656 108.183594 C 53.613281 107.886719 38 109.253906 22.367188 109.734375 L 22.503906 111.605469 C 38.070312 112.0625 53.679688 111.582031 69.222656 110.257812 Z M 78.148438 79.242188 C 77.738281 79.492188 77.304688 79.765625 76.847656 80.039062 C 61.328125 77.734375 45.441406 78.738281 29.738281 79.675781 C 28.894531 80.929688 28.050781 82.183594 27.570312 83.601562 C 27.136719 84.925781 27.023438 86.429688 26.132812 87.503906 C 24.921875 88.964844 22.800781 89.03125 20.90625 89.351562 L 19.71875 72.894531 C 19.71875 72.894531 20.972656 67.625 23.894531 60.957031 C 24.261719 61.09375 24.625 61.234375 24.992188 61.347656 C 27.113281 61.984375 29.441406 62.441406 30.949219 64.039062 C 31.929688 65.066406 32.429688 66.460938 32.660156 67.875 C 48.089844 67.257812 63.539062 67.191406 78.96875 67.691406 C 79.222656 68.308594 79.449219 68.878906 79.65625 69.402344 C 76.847656 69.222656 74.039062 69.3125 71.234375 69.425781 C 58.40625 69.929688 45.601562 70.75 32.796875 71.617188 C 32.613281 73.558594 32.089844 75.453125 31.222656 77.1875 C 46.878906 77.117188 62.558594 77.804688 78.148438 79.242188 Z M 27.636719 53.496094 C 43.066406 54.132812 58.472656 55.070312 73.859375 56.28125 C 74.222656 57.054688 74.589844 57.785156 74.90625 58.515625 C 58.542969 57.398438 41.996094 58.402344 25.722656 57.054688 C 26.3125 55.890625 26.953125 54.703125 27.636719 53.496094 Z M 69.726562 48.132812 C 66.210938 47.855469 62.671875 47.265625 59.160156 46.921875 C 54.867188 46.488281 50.554688 46.417969 46.261719 46.328125 C 41.878906 46.238281 37.476562 46.121094 33.09375 46.007812 C 33 46.007812 32.886719 46.007812 32.796875 46.007812 C 33.6875 44.9375 34.621094 43.886719 35.605469 42.882812 C 46.535156 43.636719 57.445312 44.570312 68.355469 45.710938 C 68.789062 46.488281 69.269531 47.285156 69.726562 48.132812 Z M 32.203125 101.359375 C 28.757812 101.675781 25.265625 102.042969 21.796875 102.066406 L 21.679688 100.535156 C 37.40625 99.007812 53.203125 97.75 68.949219 98.277344 C 68.972656 98.847656 68.996094 99.417969 69.019531 99.988281 C 56.738281 99.78125 44.4375 100.238281 32.203125 101.359375 Z M 38.410156 9.308594 C 38.410156 9.308594 13.214844 32.929688 8.488281 34.367188 C 3.761719 35.804688 12.367188 24.300781 12.367188 24.300781 C 9.605469 19.488281 10.382812 9.328125 18.578125 5.289062 C 29.054688 0.152344 38.410156 9.308594 38.410156 9.308594 Z M 38.410156 9.308594 " fill-opacity="1" fill-rule="nonzero"/><path fill="#efa355" d="M 36.105469 61.667969 L 32.726562 71.707031 C 32.726562 72.347656 38.410156 67.074219 43.84375 61.757812 C 48.589844 57.101562 47.90625 55.296875 46.46875 54.5 C 45.03125 53.699219 44.230469 55.9375 42.90625 56.507812 C 42.90625 56.507812 43.273438 54.089844 42.15625 54.5 C 41.035156 54.910156 41.035156 57.695312 40.238281 58.5625 C 39.4375 59.429688 35.921875 62.304688 35.921875 62.304688 M 21.246094 49.042969 C 18.941406 48.519531 18.828125 44.089844 22.84375 45.324219 C 26.863281 46.554688 31.402344 45.140625 32.773438 43.042969 C 33.253906 44.023438 33.574219 45.074219 33.710938 46.054688 C 33.9375 47.925781 33.550781 49.683594 32.84375 51.167969 C 32.886719 51.257812 32.957031 51.347656 33.046875 51.441406 C 33.160156 51.578125 33.253906 51.714844 33.277344 51.898438 C 33.296875 52.101562 33.183594 52.332031 32.980469 52.421875 C 32.820312 52.492188 32.410156 52.445312 32.203125 52.332031 C 30.765625 54.566406 28.757812 55.914062 27.796875 55.550781 C 23.621094 53.996094 19.785156 52.96875 17.527344 52.421875 C 19.238281 51.625 20.675781 50.09375 21.246094 49.042969 Z M 21.246094 49.042969 " fill-opacity="1" fill-rule="nonzero"/><path fill="#0a0d30" d="M 30.628906 40.347656 C 32.523438 40.300781 34.554688 39.6875 36.699219 38.269531 C 38.410156 36.21875 38.410156 33.683594 38.410156 33.683594 C 38.410156 33.683594 34.007812 29.277344 29.738281 28.523438 C 25.46875 27.75 22.753906 33.75 21.042969 34.824219 C 21.613281 35.578125 22.207031 36.285156 22.867188 36.949219 C 23.847656 36.058594 25.996094 33.066406 27.910156 32.976562 C 30.195312 32.816406 34.644531 35.964844 30.628906 40.347656 Z M 30.789062 50.027344 C 30.855469 49.933594 30.96875 49.890625 31.085938 49.957031 C 31.402344 50.117188 31.769531 50.140625 32.089844 50.027344 C 32.226562 49.980469 32.363281 49.910156 32.453125 49.796875 C 32.5 49.730469 32.613281 49.707031 32.683594 49.730469 C 32.84375 49.773438 32.910156 49.980469 32.796875 50.117188 C 32.660156 50.277344 32.476562 50.414062 32.226562 50.480469 C 32.042969 50.550781 31.859375 50.574219 31.679688 50.574219 C 31.402344 50.574219 31.128906 50.503906 30.878906 50.390625 C 30.742188 50.300781 30.695312 50.140625 30.789062 50.027344 Z M 30.46875 47.972656 C 30.855469 47.8125 31.3125 47.628906 31.792969 47.582031 C 32.453125 47.539062 33.046875 47.765625 33.367188 48.199219 C 33.503906 48.359375 33.414062 48.519531 33.390625 48.542969 C 33.34375 48.632812 33.160156 48.65625 32.980469 48.472656 C 32.703125 48.109375 32.179688 48.015625 31.816406 48.039062 C 31.425781 48.0625 31.0625 48.199219 30.652344 48.382812 C 30.535156 48.429688 30.398438 48.382812 30.355469 48.269531 C 30.285156 48.152344 30.355469 48.015625 30.46875 47.972656 Z M 21.269531 46.96875 C 21.40625 46.96875 21.5 47.082031 21.5 47.21875 C 21.5 47.402344 21.5 47.582031 21.566406 47.742188 C 21.636719 47.902344 21.796875 48.085938 21.953125 48.085938 L 21.976562 48.566406 C 21.976562 48.566406 21.953125 48.566406 21.953125 48.566406 C 21.613281 48.566406 21.269531 48.292969 21.109375 47.925781 C 21.019531 47.699219 21.019531 47.445312 21.019531 47.21875 C 21.019531 47.058594 21.132812 46.96875 21.269531 46.96875 Z M 20.402344 30.191406 C 20.90625 30.167969 21.382812 29.984375 21.75 29.644531 C 21.976562 29.414062 22.230469 29.074219 22.230469 28.707031 C 22.230469 28.59375 22.320312 28.503906 22.410156 28.480469 C 22.570312 28.457031 22.683594 28.570312 22.683594 28.730469 C 22.664062 29.1875 22.433594 29.644531 22.046875 29.984375 C 21.589844 30.417969 20.949219 30.648438 20.3125 30.648438 C 20.265625 30.648438 20.195312 30.648438 20.152344 30.648438 L 20.175781 30.398438 C 20.195312 30.304688 20.289062 30.214844 20.402344 30.191406 Z M 18.894531 27.976562 C 19.191406 27.476562 19.761719 27.15625 20.242188 26.949219 C 20.882812 26.675781 21.382812 26.539062 21.863281 26.492188 C 22.410156 26.449219 22.914062 26.539062 23.347656 26.765625 C 23.484375 26.835938 23.507812 26.996094 23.4375 27.109375 C 23.371094 27.203125 23.253906 27.246094 23.140625 27.179688 C 22.800781 26.996094 22.367188 26.925781 21.910156 26.972656 C 21.476562 27.019531 21.019531 27.132812 20.425781 27.382812 C 20.015625 27.566406 19.535156 27.816406 19.308594 28.207031 C 19.238281 28.296875 19.125 28.34375 19.035156 28.296875 C 18.875 28.273438 18.828125 28.113281 18.894531 27.976562 Z M 27.273438 37.039062 C 27.636719 36.992188 27.980469 36.832031 28.230469 36.558594 C 28.34375 36.445312 28.460938 36.261719 28.484375 36.078125 C 28.503906 35.804688 28.324219 35.554688 28.164062 35.394531 C 28.070312 35.304688 28.070312 35.167969 28.140625 35.074219 C 28.230469 34.960938 28.390625 34.960938 28.484375 35.054688 C 28.800781 35.394531 28.984375 35.761719 28.9375 36.101562 C 28.917969 36.355469 28.777344 36.628906 28.574219 36.878906 C 28.253906 37.222656 27.796875 37.449219 27.339844 37.519531 C 27.226562 37.425781 27.179688 37.382812 27.089844 37.289062 C 27.089844 37.152344 27.160156 37.0625 27.273438 37.039062 Z M 38.730469 19.714844 C 39.003906 20.195312 39.050781 20.808594 38.800781 21.3125 C 38.730469 21.449219 38.570312 21.472656 38.457031 21.402344 C 38.367188 21.335938 38.34375 21.222656 38.386719 21.105469 C 38.546875 20.742188 38.523438 20.308594 38.34375 19.964844 C 38.273438 19.875 38.296875 19.738281 38.386719 19.667969 C 38.480469 19.554688 38.664062 19.578125 38.730469 19.714844 Z M 38.730469 19.714844 " fill-opacity="1" fill-rule="nonzero"/><path fill="#187f74" d="M 29.121094 55.34375 C 29.121094 55.34375 29.785156 55.183594 30.398438 54.75 C 30.628906 55.117188 31.0625 55.753906 31.496094 55.34375 C 31.882812 54.980469 31.335938 54.546875 30.925781 54.316406 C 31.175781 54.042969 31.402344 53.722656 31.496094 53.3125 C 30.765625 52.671875 28.640625 54.796875 29.121094 55.34375 Z M 61.875 36.789062 C 55.210938 31.242188 45.097656 41.71875 39.984375 57.054688 C 36.996094 66.070312 36.175781 72.757812 36.015625 76.753906 C 35.921875 79.242188 37.613281 81.453125 40.054688 81.980469 C 46.011719 83.257812 57.46875 85.175781 65.367188 83.03125 L 66.691406 84.652344 C 66.691406 84.652344 68.628906 88.050781 51.398438 91.976562 C 34.1875 95.878906 26.679688 97.84375 15.222656 87.117188 C 9.722656 81.957031 9.515625 64.015625 11.410156 51.167969 C 11.410156 51.167969 23.4375 53.175781 31.679688 57.285156 C 32.683594 54.179688 45.601562 27.773438 57.699219 32.882812 C 60.164062 34.230469 61.875 36.789062 61.875 36.789062 Z M 61.875 36.789062 " fill-opacity="1" fill-rule="nonzero"/><path fill="#efa355" d="M 17.207031 89.351562 C 16.203125 88.804688 14.902344 90.058594 18.53125 92.660156 C 20.21875 93.871094 22.867188 95.125 26.382812 96.222656 C 25.789062 100.078125 25.035156 105.742188 25.5625 106.925781 C 26.359375 108.753906 34.097656 111.949219 34.738281 110.761719 C 35.375 109.574219 32.339844 106.925781 32.113281 105.898438 C 31.953125 105.261719 33 101.152344 33.824219 98.070312 C 36.746094 98.617188 40.007812 99.050781 43.59375 99.328125 C 56.191406 100.308594 72.28125 99.28125 79.0625 94.875 C 86.226562 90.195312 81.9375 76.546875 81.9375 76.546875 C 81.9375 76.546875 56.101562 88.851562 38.9375 87.480469 C 34.28125 86.636719 28.09375 81.386719 25.8125 81.386719 C 23.53125 81.386719 25.8125 84.261719 25.8125 84.261719 C 21.246094 83.417969 20.472656 81.796875 18.714844 80.953125 C 16.933594 80.109375 16.589844 82.140625 17.277344 82.734375 C 15.835938 82.574219 15.085938 83.738281 15.929688 84.925781 C 14.742188 84.945312 14.398438 87.570312 17.207031 89.351562 Z M 9.652344 60 C 10.175781 58.859375 11.226562 57.945312 11.820312 58.425781 C 13.03125 59.40625 10.816406 62.921875 10.816406 62.921875 C 13.394531 65.636719 14.949219 65.25 15.953125 66.503906 C 16.523438 67.210938 15.382812 68.308594 15.382812 68.308594 C 16.863281 69.152344 16.429688 69.996094 15.402344 70.796875 C 16.339844 72.027344 14.082031 72.4375 14.082031 72.4375 C 15.246094 72.734375 14.652344 75.382812 11.683594 74.082031 C 8.714844 72.757812 6.820312 70.179688 6.457031 67.601562 C 6.023438 62.945312 8.921875 61.597656 9.652344 60 Z M 9.652344 60 " fill-opacity="1" fill-rule="nonzero"/></svg>