<svg xmlns="http://www.w3.org/2000/svg" xmlns:xlink="http://www.w3.org/1999/xlink" width="120" zoomAndPan="magnify" viewBox="0 0 90 119.999999" height="160" preserveAspectRatio="xMidYMid meet" version="1.0"><path fill="#7b9abb" d="M 70.402344 29.265625 C 75.660156 31.835938 85.304688 34.960938 87.921875 45.179688 C 90.539062 55.394531 89.875 70.183594 85.097656 77.09375 C 84.410156 79.828125 86.957031 84.398438 81.101562 87.796875 C 75.269531 91.195312 79.90625 91.972656 79.90625 91.972656 C 83.328125 94.707031 87.714844 105.316406 86.542969 116.199219 C 86.542969 116.199219 37.886719 119.894531 17.152344 116.199219 C 17.152344 116.199219 15.589844 105.015625 16.671875 99.460938 C 17.75 93.902344 14.949219 78.152344 16.304688 70.460938 C 17.65625 62.765625 33.316406 41.757812 47.050781 35.808594 C 60.78125 29.863281 70.402344 29.265625 70.402344 29.265625 Z M 70.402344 29.265625 " fill-opacity="1" fill-rule="nonzero"/><path fill="#544541" d="M 23.121094 57.554688 C 23.996094 56.359375 24.914062 55.144531 25.902344 53.902344 L 89.460938 58.335938 C 89.460938 59.414062 89.414062 60.472656 89.367188 61.550781 Z M 33.089844 45.9375 L 88.3125 46.878906 C 88.195312 46.304688 88.058594 45.730469 87.921875 45.179688 C 87.828125 44.8125 87.714844 44.441406 87.601562 44.097656 L 36.074219 43.15625 C 35.0625 44.054688 34.074219 44.972656 33.089844 45.9375 Z M 16.601562 88.898438 L 78.667969 89.632812 C 79.105469 89.128906 79.863281 88.53125 81.101562 87.820312 C 82.339844 87.082031 83.214844 86.304688 83.8125 85.5 L 16.257812 84.007812 C 16.371094 85.660156 16.488281 87.3125 16.601562 88.898438 Z M 86.015625 105.132812 C 85.855469 104.28125 85.671875 103.476562 85.441406 102.675781 C 68.585938 103.132812 32.351562 104.144531 16.304688 104.582031 C 16.304688 105.660156 16.324219 106.761719 16.394531 107.839844 Z M 87.714844 71.355469 L 18.875 68.988281 L 18.875 74.085938 L 85.761719 76.0625 C 86.542969 74.683594 87.1875 73.101562 87.714844 71.355469 Z M 49.253906 28.277344 C 57.65625 29.609375 65.441406 26.1875 65.441406 26.1875 C 65.878906 2.652344 52.054688 0.105469 44.269531 5.363281 C 41.011719 2.929688 28.632812 8.53125 27.507812 17.441406 C 26.867188 16.476562 25.945312 14.636719 25.003906 15.742188 C 24.0625 16.84375 23.996094 21.824219 30.492188 22.929688 C 30.492188 22.90625 40.828125 26.921875 49.253906 28.277344 Z M 49.253906 28.277344 " fill-opacity="1" fill-rule="nonzero"/><path fill="#efa355" d="M 53.132812 38.335938 C 38.207031 42.125 30.378906 26.097656 30.492188 22.90625 C 34.648438 23.523438 41.011719 19.484375 41.882812 14.960938 C 47.507812 21.6875 53.386719 20.839844 54.375 19.117188 C 56.324219 15.191406 61.953125 18.015625 59.402344 21.941406 C 59.402344 21.941406 69.183594 29.035156 70.425781 29.289062 C 70.402344 29.265625 68.082031 34.523438 53.132812 38.335938 Z M 32.351562 49.496094 C 41.214844 51.539062 47.394531 38.863281 36.210938 34.546875 C 25.027344 30.230469 19.105469 42.558594 17.957031 42.90625 C 17.957031 42.90625 23.488281 47.453125 32.351562 49.496094 Z M 32.351562 49.496094 " fill-opacity="1" fill-rule="nonzero"/><path fill="#544541" d="M 27.921875 33.628906 C 28.359375 33.445312 28.792969 33.308594 29.253906 33.167969 C 33.617188 31.882812 38.140625 32.640625 41.402344 35.558594 C 44.960938 38.773438 43.304688 42.007812 42.273438 42.148438 C 41.238281 42.285156 41.171875 41.847656 40.664062 40.859375 C 40.183594 39.875 39.289062 38.816406 37.449219 39.300781 C 35.589844 39.78125 33.890625 38.265625 33.457031 38.152344 C 32.375 37.875 31.296875 37.554688 30.308594 37.921875 C 29.734375 38.128906 29.277344 38.566406 28.703125 38.773438 C 28.242188 38.933594 27.714844 38.957031 27.257812 38.839844 C 26.820312 38.726562 26.40625 38.472656 25.96875 38.359375 C 25.144531 38.152344 24.203125 38.449219 23.652344 39.117188 C 23.101562 39.78125 22.984375 40.746094 23.351562 41.527344 C 22.066406 42.929688 19.90625 43.386719 18.046875 42.90625 C 18.851562 42.515625 22.179688 35.992188 27.921875 33.628906 Z M 34.535156 42.125 C 34.511719 42.007812 34.441406 41.917969 34.328125 41.917969 L 34.304688 41.917969 C 34.167969 41.917969 34.050781 42.03125 34.050781 42.171875 C 34.097656 42.628906 34.375 43.066406 34.765625 43.316406 C 35.015625 43.480469 35.316406 43.570312 35.636719 43.570312 C 35.796875 43.570312 35.957031 43.546875 36.097656 43.5 C 36.234375 43.457031 36.304688 43.296875 36.234375 43.179688 L 36.210938 43.15625 C 36.164062 43.066406 36.050781 43.019531 35.933594 43.042969 C 35.636719 43.132812 35.292969 43.089844 35.039062 42.90625 C 34.765625 42.742188 34.582031 42.445312 34.535156 42.125 Z M 24.546875 40.035156 C 24.386719 40.289062 24.316406 40.585938 24.316406 40.90625 C 24.339844 41.230469 24.453125 41.527344 24.636719 41.757812 C 24.730469 41.871094 24.914062 41.871094 25.003906 41.757812 L 25.027344 41.734375 C 25.097656 41.640625 25.074219 41.527344 25.003906 41.433594 C 24.890625 41.296875 24.800781 41.089844 24.800781 40.882812 C 24.777344 40.675781 24.84375 40.472656 24.9375 40.308594 C 25.003906 40.21875 24.984375 40.101562 24.914062 40.011719 L 24.890625 39.988281 C 24.800781 39.875 24.617188 39.898438 24.546875 40.035156 Z M 38.4375 28.78125 C 38.4375 29.171875 38.300781 29.5625 38.164062 29.953125 C 37.980469 30.503906 37.773438 31.078125 37.886719 31.675781 C 38.046875 32.527344 38.851562 33.214844 39.792969 33.375 C 39.929688 33.398438 40.070312 33.308594 40.070312 33.167969 L 40.070312 33.144531 C 40.070312 33.03125 40 32.917969 39.886719 32.917969 C 39.21875 32.800781 38.507812 32.34375 38.371094 31.609375 C 38.277344 31.125 38.4375 30.644531 38.621094 30.136719 C 38.761719 29.703125 38.921875 29.265625 38.921875 28.804688 C 38.921875 28.667969 38.804688 28.554688 38.667969 28.578125 L 38.644531 28.578125 C 38.53125 28.578125 38.4375 28.667969 38.4375 28.78125 Z M 37.335938 29.886719 C 37.40625 29.679688 37.40625 29.519531 37.3125 29.378906 L 36.921875 29.679688 C 36.921875 29.65625 36.898438 29.65625 36.898438 29.65625 C 36.898438 29.65625 36.898438 29.679688 36.875 29.726562 C 36.761719 30.023438 36.507812 30.296875 36.164062 30.4375 C 35.890625 30.550781 35.613281 30.597656 35.339844 30.527344 C 35.222656 30.503906 35.132812 30.574219 35.085938 30.667969 L 35.085938 30.6875 C 35.039062 30.828125 35.109375 30.964844 35.246094 31.011719 C 35.363281 31.035156 35.476562 31.054688 35.589844 31.054688 C 35.84375 31.054688 36.121094 31.011719 36.347656 30.894531 C 36.832031 30.6875 37.175781 30.320312 37.335938 29.886719 Z M 40.414062 28.164062 C 40.296875 28.164062 40.207031 28.230469 40.183594 28.347656 L 40.183594 28.371094 C 40.160156 28.507812 40.253906 28.644531 40.390625 28.644531 C 40.4375 28.644531 40.480469 28.644531 40.503906 28.644531 C 41.054688 28.644531 41.585938 28.4375 42.019531 28.09375 C 42.480469 27.703125 42.753906 27.152344 42.800781 26.554688 C 42.824219 26.417969 42.710938 26.304688 42.570312 26.304688 L 42.546875 26.304688 C 42.433594 26.304688 42.34375 26.394531 42.320312 26.511719 C 42.273438 26.96875 42.042969 27.429688 41.699219 27.726562 C 41.355469 28.027344 40.871094 28.1875 40.414062 28.164062 Z M 40.136719 25.546875 C 41.332031 25.015625 42.664062 24.832031 43.949219 25.0625 C 44.0625 25.085938 44.203125 25.015625 44.226562 24.878906 L 44.226562 24.855469 C 44.246094 24.71875 44.179688 24.605469 44.042969 24.582031 C 42.664062 24.351562 41.214844 24.535156 39.929688 25.109375 C 39.816406 25.15625 39.769531 25.316406 39.816406 25.429688 L 39.839844 25.453125 C 39.886719 25.546875 40.023438 25.589844 40.136719 25.546875 Z M 34.925781 27.039062 C 34.398438 27.335938 33.960938 27.773438 33.664062 28.300781 C 33.59375 28.414062 33.640625 28.578125 33.753906 28.621094 L 33.777344 28.644531 C 33.890625 28.691406 34.007812 28.667969 34.074219 28.554688 C 34.328125 28.09375 34.71875 27.726562 35.179688 27.472656 C 35.269531 27.429688 35.316406 27.289062 35.269531 27.175781 L 35.246094 27.152344 C 35.199219 27.015625 35.039062 26.96875 34.925781 27.039062 Z M 41.421875 35.007812 C 41.308594 35.007812 41.214844 35.097656 41.195312 35.210938 L 41.171875 35.488281 C 41.285156 35.511719 41.402344 35.511719 41.515625 35.511719 C 42.480469 35.511719 43.445312 35.027344 44.019531 34.25 C 44.132812 34.109375 44.246094 33.902344 44.269531 33.652344 C 44.292969 33.492188 44.269531 33.351562 44.203125 33.238281 C 44.132812 33.078125 43.878906 33.078125 43.789062 33.238281 L 43.765625 33.261719 C 43.71875 33.328125 43.71875 33.398438 43.742188 33.46875 C 43.765625 33.511719 43.765625 33.558594 43.765625 33.605469 C 43.742188 33.695312 43.695312 33.8125 43.605469 33.972656 C 43.121094 34.617188 42.273438 35.027344 41.421875 35.007812 Z M 58.117188 19.898438 C 58.140625 20.035156 58.070312 20.21875 58.023438 20.378906 C 57.910156 20.632812 57.773438 20.859375 57.613281 21.066406 C 57.542969 21.160156 57.566406 21.296875 57.632812 21.367188 L 57.65625 21.390625 C 57.75 21.480469 57.910156 21.457031 58 21.367188 C 58.1875 21.113281 58.347656 20.859375 58.460938 20.5625 C 58.574219 20.265625 58.621094 20.011719 58.597656 19.78125 C 58.574219 19.621094 58.371094 19.550781 58.253906 19.644531 L 58.207031 19.667969 C 58.140625 19.714844 58.117188 19.804688 58.117188 19.898438 Z M 34.972656 40.449219 L 34.972656 40.472656 C 34.949219 40.585938 35.039062 40.699219 35.15625 40.746094 C 35.957031 40.929688 36.714844 41.34375 37.335938 41.894531 C 37.429688 41.984375 37.566406 41.984375 37.65625 41.894531 L 37.679688 41.871094 C 37.773438 41.78125 37.773438 41.617188 37.679688 41.550781 C 37.015625 40.929688 36.164062 40.472656 35.269531 40.265625 C 35.132812 40.242188 34.992188 40.332031 34.972656 40.449219 Z M 34.972656 40.449219 " fill-opacity="1" fill-rule="nonzero"/><path fill="#fd848c" d="M 31.390625 58.199219 C 31.390625 58.199219 39.082031 55.695312 41.011719 54.269531 C 42.9375 52.824219 42.546875 51.011719 43.878906 50.527344 C 45.234375 50.046875 45.121094 52.25 45.121094 52.25 C 47.992188 51.195312 48.585938 49.886719 49.4375 49.722656 C 50.285156 49.5625 50.585938 50.917969 50.585938 50.917969 C 51.640625 50.527344 52.03125 51.675781 51.941406 52.273438 C 52.996094 52.089844 52.996094 53.511719 51.066406 55.050781 C 52.125 55.535156 49.828125 58.359375 43.765625 58.585938 C 41.746094 59.390625 35.796875 65.429688 35.796875 65.429688 " fill-opacity="1" fill-rule="nonzero"/><path fill="#eceada" d="M 88.816406 49.703125 C 87.621094 44.71875 83.144531 33.078125 65.855469 34.546875 C 44.269531 38.472656 18.78125 84.71875 22.296875 86.671875 C 25.808594 88.621094 81.675781 87.429688 81.675781 87.429688 L 82.089844 94.59375 C 82.089844 94.59375 30.332031 105.132812 18.875 101.527344 C 7.417969 97.921875 2.984375 90.070312 3.488281 77.875 C 3.996094 65.683594 17.933594 42.882812 17.933594 42.882812 C 24.753906 44.421875 37.246094 43.914062 38.277344 43.296875 C 41.605469 40.792969 51.457031 33.078125 65.554688 30.503906 C 86.636719 26.921875 89.4375 47.542969 88.816406 49.703125 Z M 88.816406 49.703125 " fill-opacity="1" fill-rule="nonzero"/><path fill="#fd848c" d="M 26.726562 74.085938 C 29.414062 75.855469 35.15625 79.277344 29.507812 94.984375 C 29.046875 96.085938 34.328125 100.378906 32.558594 102.054688 C 30.792969 103.730469 22.203125 99.414062 21.46875 97.554688 C 20.734375 95.71875 18.164062 87.703125 26.726562 74.085938 Z M 26.726562 74.085938 " fill-opacity="1" fill-rule="nonzero"/><path fill="#efa355" d="M 6.0625 66.464844 C 7.324219 67.472656 5.003906 71.171875 5.003906 71.171875 C 7.691406 73.996094 9.300781 73.605469 10.355469 74.914062 C 10.929688 75.648438 9.757812 76.796875 9.757812 76.796875 C 11.296875 77.667969 10.839844 78.566406 9.78125 79.390625 C 10.769531 80.675781 8.402344 81.113281 8.402344 81.113281 C 9.621094 81.410156 9 84.191406 5.902344 82.8125 C 2.800781 81.433594 0.828125 78.726562 0.4375 76.0625 C 0 71.21875 3.03125 69.792969 3.789062 68.117188 C 4.316406 66.898438 5.417969 65.957031 6.0625 66.464844 Z M 50.449219 89.816406 C 63.375 88.738281 69.691406 76.109375 69.691406 76.109375 C 60.597656 66.878906 48.382812 61.984375 48.382812 61.984375 C 48.382812 61.984375 47.691406 64.238281 47.210938 63.914062 C 46.726562 63.59375 33.273438 54.570312 31.390625 50.597656 C 29.507812 46.601562 28.792969 44.007812 27.234375 43.363281 C 25.671875 42.699219 26.199219 47.679688 26.199219 47.679688 C 26.199219 47.679688 22.203125 43.410156 17.75 43.089844 C 15.589844 43.179688 15.75 45.339844 16.625 45.5 C 14.074219 44.558594 13.777344 46.164062 14.832031 47.472656 C 13.179688 47.472656 13.5 49.378906 15.589844 51.035156 C 13.410156 51.125 14.328125 52.847656 16.691406 54.914062 C 18.804688 56.796875 21.746094 58.152344 24.339844 60.308594 C 28.175781 63.546875 39.886719 90.710938 50.449219 89.816406 Z M 50.449219 89.816406 " fill-opacity="1" fill-rule="nonzero"/></svg>