<?xml version="1.0" encoding="UTF-8"?>
<svg id="Réteg_1" data-name="Réteg 1" xmlns="http://www.w3.org/2000/svg" viewBox="0 0 500 500">
  <defs>
    <style>
      .cls-1 {
        fill: #fff;
      }
    </style>
  </defs>
  <path class="cls-1" d="M319.86,173.59c8.72-7.46,13.79-18.29,13.79-30.02,0-21.84-17.77-39.6-39.61-39.6-.25,0-.5,0-.75.01.69-3.57,1.04-7.21,1.04-10.87,0-31.53-25.65-57.18-57.18-57.18s-57.18,25.65-57.18,57.18c0,23.09,13.77,43.02,33.52,52.03-3.6.61-7.14,1.36-10.61,2.26-19.15-3.84-42.75-5.13-57.56,17.28-7.7,11.64-6.06,29.12,4.74,50.55.96,2.24,2.14,4.45,3.51,6.57.01.02.02.04.04.06,26.03,45.85,85.1,98.31,117.13,104,5.02.89,9.93,1.33,14.71,1.33,16.4,0,31.19-5.22,43.36-15.43,22.45-18.82,30.45-48.58,30.45-70.16,0-32.75-14.27-57.23-39.4-68.03ZM326.53,143.57c0,11.03-5.46,21.11-14.66,27.16-.25-.07-.51-.14-.77-.21-.44-.12-.89-.24-1.34-.36-.55-.14-1.11-.28-1.67-.41-.45-.11-.9-.21-1.36-.31-.57-.12-1.15-.24-1.72-.35-.46-.09-.92-.18-1.38-.26-.59-.11-1.19-.2-1.79-.29-.46-.07-.92-.15-1.39-.21-.62-.09-1.25-.16-1.87-.23-.46-.05-.91-.11-1.37-.16-.66-.07-1.33-.12-2-.17-.44-.04-.87-.08-1.31-.11-.75-.05-1.5-.08-2.26-.12-.37-.02-.74-.04-1.12-.05-1.14-.04-2.28-.06-3.44-.06-.65,0-1.3-.01-1.97-.03-.22,0-.45-.02-.68-.03-.45-.02-.89-.03-1.34-.06-.27-.02-.56-.04-.83-.06-.41-.03-.82-.05-1.24-.09-.3-.03-.61-.06-.92-.08-.4-.04-.81-.07-1.22-.12-.32-.03-.65-.07-.98-.11-.41-.05-.81-.09-1.22-.15-.34-.04-.68-.09-1.03-.14-.41-.06-.82-.12-1.24-.18-.36-.05-.72-.11-1.08-.17-.42-.07-.84-.14-1.26-.21-.37-.06-.75-.13-1.12-.2-.24-.04-.48-.09-.73-.13-.01-.02-.03-.03-.04-.05-.51-.56-1.01-1.13-1.48-1.73-.05-.07-.11-.13-.16-.2-.46-.59-.9-1.19-1.32-1.81-.05-.08-.11-.16-.16-.24-.41-.62-.8-1.25-1.17-1.89-.05-.08-.1-.17-.14-.25-.36-.65-.71-1.31-1.03-1.98-.04-.08-.08-.16-.11-.24-.32-.68-.61-1.37-.88-2.08-.03-.07-.05-.14-.08-.22-.27-.72-.52-1.44-.73-2.18-.02-.06-.03-.11-.05-.17-.22-.75-.41-1.51-.58-2.28,0-.03-.01-.07-.02-.1-.17-.79-.31-1.59-.41-2.39-.19-1.39-.28-2.83-.28-4.28,0-.31,0-.61.02-.96.06-1.97.29-3.9.68-5.77,2.74-13.09,13.35-23.38,26.99-25.4,1.55-.24,3.16-.36,4.8-.36,17.92,0,32.49,14.57,32.49,32.49ZM254.56,161.94c-.42-.12-.84-.23-1.27-.35-1.75-.49-3.5-.99-5.26-1.51-.38-.11-.77-.23-1.15-.34-1.46-.43-2.92-.87-4.38-1.32-.55-.17-1.1-.33-1.64-.5-1.66-.51-3.33-1.02-4.98-1.53-1.36-.42-2.73-.84-4.09-1.26-.15-.05-.3-.09-.45-.14-1.21-.37-2.42-.74-3.64-1.11-.4-.12-.81-.24-1.21-.36-.96-.29-1.92-.57-2.87-.86-.59-.17-1.17-.34-1.76-.51-.77-.22-1.55-.45-2.32-.67-.07-.02-.15-.04-.22-.06,11.65-1.54,24.11-1.55,35.91.04.02.08.04.17.06.25.05.24.11.49.16.73.06.28.13.55.2.83.06.24.13.48.19.72.08.28.15.55.23.82.07.24.15.47.22.71.09.27.17.54.27.81.08.23.16.46.25.7.1.27.2.54.3.8.09.23.18.46.28.69.11.26.22.53.33.79.1.23.2.45.3.67.12.26.24.52.36.78.11.22.22.44.33.66.13.25.26.51.39.76.12.22.24.43.36.65.08.15.16.31.25.46-.3-.08-.61-.16-.92-.24-1.4-.36-2.81-.74-4.23-1.12ZM187.09,93.11c0-27.6,22.46-50.06,50.06-50.06s50.06,22.46,50.06,50.06c0,3.96-.46,7.89-1.38,11.71-.21.04-.42.1-.63.15-.25.06-.49.11-.74.17-.32.08-.63.16-.94.25-.23.06-.47.12-.7.19-.33.1-.66.2-.99.31-.2.07-.41.13-.62.2-.44.15-.88.31-1.31.48-.23.09-.47.18-.7.27-.36.14-.71.29-1.06.44-.24.1-.48.22-.71.33-.26.12-.52.24-.78.36-.26.13-.52.26-.77.39-.23.12-.45.23-.67.35-.27.15-.54.3-.81.45-.2.11-.4.22-.59.34-.28.17-.56.34-.84.51-.17.11-.34.22-.51.33-.29.19-.58.38-.87.58-.14.1-.29.2-.43.3-.31.22-.61.44-.92.67-.11.08-.21.16-.32.24-.33.25-.66.51-.98.78-.05.04-.11.09-.16.13-7.97,6.59-13.24,16.21-14.18,27.01-5.57,2.07-11.43,3.12-17.45,3.12-27.6,0-50.06-22.46-50.06-50.06ZM324.23,306.32c-14.25,11.95-31.84,16.16-52.25,12.54-29.85-5.3-87.54-57.02-112.24-100.61,0-.02-.02-.03-.03-.05-.42-.74-.82-1.49-1.23-2.23-.16-.29-.32-.58-.48-.87-.54-1.02-1.07-2.03-1.57-3.02,0,0,0,0,0,0h0c-6.69-13.28-13.03-31.6-5.18-43.47,10.02-15.15,25.27-19.36,50.99-14.07,10.1,2.07,21,5.43,31.54,8.68,1.41.43,2.82.87,4.24,1.3,9.93,3.04,20.05,6.03,29.72,7.92,0,0,0,0,0,0,7.23,1.41,13.55,2.1,19.33,2.1,1.12,0,2.23.02,3.33.06,7.56.26,14.58,1.4,20.95,3.43.4.12.79.25,1.19.39,25.16,8.54,39.59,31.58,39.59,63.22,0,25.1-10.95,50.49-27.91,64.7Z"/>
  <g>
    <path class="cls-1" d="M31.33,387.99c0-15.37,11.76-26.83,27.73-26.83s27.66,11.38,27.66,26.83-11.83,26.83-27.66,26.83-27.73-11.46-27.73-26.83ZM81.15,387.99c0-12.59-9.42-21.86-22.08-21.86s-22.23,9.27-22.23,21.86,9.5,21.86,22.23,21.86,22.08-9.27,22.08-21.86Z"/>
    <path class="cls-1" d="M135.25,414.37l-12.06-16.96c-1.36.15-2.71.23-4.22.23h-14.17v16.73h-5.58v-52.75h19.75c13.41,0,21.55,6.78,21.55,18.09,0,8.29-4.37,14.09-12.06,16.58l12.89,18.09h-6.1ZM134.95,379.7c0-8.44-5.58-13.26-16.13-13.26h-14.02v26.45h14.02c10.55,0,16.13-4.9,16.13-13.19Z"/>
    <path class="cls-1" d="M197.8,400.27c0,8.97-6.63,14.09-19.82,14.09h-24.27v-52.75h22.76c11.76,0,18.54,4.97,18.54,13.57,0,6.03-3.24,10.02-8.06,11.98,6.78,1.51,10.85,5.95,10.85,13.11ZM159.29,366.21v19.14h16.81c8.44,0,13.34-3.24,13.34-9.57s-4.9-9.57-13.34-9.57h-16.81ZM192.22,399.82c0-6.86-5.05-9.87-14.32-9.87h-18.61v19.82h18.61c9.27,0,14.32-3.01,14.32-9.95Z"/>
    <path class="cls-1" d="M243.62,400.27h-29.39l-6.33,14.09h-5.8l24.12-52.75h5.5l24.12,52.75h-5.88l-6.33-14.09ZM241.58,395.75l-12.66-28.34-12.66,28.34h25.32ZM229.37,357.32h-5.27l10.32-9.35h7.16l-12.21,9.35Z"/>
    <path class="cls-1" d="M308.65,361.61v52.75h-4.6l-33.91-42.81v42.81h-5.58v-52.75h4.6l33.99,42.81v-42.81h5.5Z"/>
    <path class="cls-1" d="M371.5,414.37l-.08-31.65-15.53,26.08h-5.5l-15.45-25.4v30.97h-11.46v-52.75h10.1l19.75,32.78,19.44-32.78h10.02l.15,52.75h-11.45Z"/>
    <path class="cls-1" d="M395.46,361.61h12.21v52.75h-12.21v-52.75Z"/>
    <path class="cls-1" d="M454.92,403.06h-24.49l-4.67,11.3h-12.51l23.51-52.75h12.06l23.59,52.75h-12.81l-4.67-11.3ZM451.07,393.79l-8.37-20.2-8.37,20.2h16.73Z"/>
  </g>
  <g>
    <path class="cls-1" d="M22.23,452.28c0,6.82-4.75,11.79-11.23,11.79-3.84,0-6.48-1.62-7.57-4.52l-.87,4.33H0l5.58-27.96h2.67l-2.22,11.12c1.85-1.96,4.41-3.13,7.54-3.13,5.09,0,8.67,3.17,8.67,8.37ZM19.52,452.43c0-3.88-2.37-6.18-6.52-6.18-4.94,0-8.55,3.88-8.55,9.31,0,3.88,2.37,6.14,6.52,6.14,4.94,0,8.55-3.88,8.55-9.27Z"/>
    <path class="cls-1" d="M47.59,444.06l-3.96,19.82h-2.56l.64-3.13c-1.88,2.07-4.52,3.32-7.72,3.32-5.09,0-8.63-3.17-8.63-8.4,0-6.78,4.75-11.76,11.19-11.76,3.77,0,6.41,1.55,7.54,4.3l.83-4.15h2.68ZM43.14,452.43c0-3.88-2.37-6.18-6.52-6.18-4.94,0-8.59,3.92-8.59,9.31,0,3.88,2.37,6.14,6.52,6.14,4.94,0,8.59-3.88,8.59-9.27Z"/>
    <path class="cls-1" d="M73.32,452.28c0,6.82-4.75,11.79-11.23,11.79-3.84,0-6.48-1.62-7.57-4.52l-.87,4.33h-2.56l5.58-27.96h2.67l-2.22,11.12c1.85-1.96,4.41-3.13,7.54-3.13,5.09,0,8.67,3.17,8.67,8.37ZM70.61,452.43c0-3.88-2.37-6.18-6.52-6.18-4.94,0-8.55,3.88-8.55,9.31,0,3.88,2.37,6.14,6.52,6.14,4.94,0,8.55-3.88,8.55-9.27Z"/>
    <path class="cls-1" d="M98.68,444.06l-3.96,19.82h-2.56l.64-3.13c-1.88,2.07-4.52,3.32-7.72,3.32-5.09,0-8.63-3.17-8.63-8.4,0-6.78,4.75-11.76,11.19-11.76,3.77,0,6.41,1.55,7.54,4.3l.83-4.15h2.68ZM94.24,452.43c0-3.88-2.37-6.18-6.52-6.18-4.94,0-8.59,3.92-8.59,9.31,0,3.88,2.37,6.14,6.52,6.14,4.94,0,8.59-3.88,8.59-9.27Z"/>
    <path class="cls-1" d="M122.87,450.35c0,.72-.08,1.47-.23,2.26l-2.26,11.27h-2.68l2.26-11.3c.11-.64.19-1.24.19-1.81,0-2.83-1.7-4.45-5.12-4.45-4.22,0-7.12,2.3-8.06,6.93l-2.11,10.63h-2.68l5.58-27.96h2.67l-2.22,11.12c1.88-2.15,4.52-3.13,7.57-3.13,4.48,0,7.08,2.41,7.08,6.44Z"/>
    <path class="cls-1" d="M127.58,455.67c0-6.74,4.79-11.76,11.46-11.76,5.5,0,9.01,3.24,9.01,8.37,0,6.78-4.79,11.79-11.46,11.79-5.5,0-9.01-3.32-9.01-8.4ZM145.37,452.43c0-3.88-2.37-6.18-6.52-6.18-4.94,0-8.59,3.92-8.59,9.31,0,3.88,2.37,6.14,6.52,6.14,4.94,0,8.59-3.88,8.59-9.27Z"/>
    <path class="cls-1" d="M165.34,443.91l-.49,2.6c-.26,0-.45-.04-.75-.04-4.22,0-7.05,2.41-8.03,7.35l-2,10.06h-2.68l3.92-19.82h2.56l-.68,3.62c1.77-2.6,4.37-3.77,8.14-3.77Z"/>
    <path class="cls-1" d="M189.68,435.92l-5.58,27.96h-2.56l.64-3.13c-1.88,2.07-4.52,3.32-7.72,3.32-5.09,0-8.63-3.17-8.63-8.4,0-6.78,4.75-11.76,11.19-11.76,3.77,0,6.37,1.55,7.54,4.3l2.45-12.28h2.67ZM183.61,452.43c0-3.88-2.37-6.18-6.52-6.18-4.94,0-8.59,3.92-8.59,9.31,0,3.88,2.37,6.14,6.52,6.14,4.94,0,8.59-3.88,8.59-9.27Z"/>
    <path class="cls-1" d="M191.37,455.67c0-6.74,4.79-11.76,11.46-11.76,5.5,0,9.01,3.24,9.01,8.37,0,6.78-4.79,11.79-11.46,11.79-5.5,0-9.01-3.32-9.01-8.4ZM209.16,452.43c0-3.88-2.37-6.18-6.52-6.18-4.94,0-8.59,3.92-8.59,9.31,0,3.88,2.37,6.14,6.52,6.14,4.94,0,8.59-3.88,8.59-9.27Z"/>
    <path class="cls-1" d="M232.14,445.83l-15.45,15.83h12.55l-.45,2.22h-16.13l.34-1.77,15.45-15.79h-12.02l.45-2.26h15.64l-.38,1.77Z"/>
    <path class="cls-1" d="M255.8,444.06l-3.96,19.82h-2.56l.64-3.13c-1.88,2.07-4.52,3.32-7.72,3.32-5.09,0-8.63-3.17-8.63-8.4,0-6.78,4.75-11.76,11.19-11.76,3.77,0,6.41,1.55,7.54,4.3l.83-4.15h2.68ZM251.36,452.43c0-3.88-2.37-6.18-6.52-6.18-4.94,0-8.59,3.92-8.59,9.31,0,3.88,2.37,6.14,6.52,6.14,4.94,0,8.59-3.88,8.59-9.27ZM247.21,441.01h-2.79l5.73-4.67h3.66l-6.59,4.67Z"/>
    <path class="cls-1" d="M257.2,461.66l1.28-2.11c1.51,1.32,4.14,2.19,6.86,2.19,3.81,0,5.88-1.32,5.88-3.54,0-4.48-11.23-1.39-11.23-8.1,0-3.77,3.39-6.18,8.59-6.18,2.52,0,5.2.72,6.71,1.85l-1.13,2.15c-1.55-1.17-3.77-1.69-5.8-1.69-3.66,0-5.73,1.47-5.73,3.62,0,4.6,11.23,1.47,11.23,8.06,0,3.92-3.5,6.18-8.78,6.18-3.24,0-6.33-1.02-7.88-2.41Z"/>
    <path class="cls-1" d="M281.65,444.06h2.67l-3.92,19.82h-2.68l3.92-19.82ZM282.33,437.96c0-1.13.87-2.03,2.07-2.03,1.05,0,1.85.79,1.85,1.69,0,1.21-.9,2.11-2.11,2.11-1.06,0-1.81-.83-1.81-1.77Z"/>
    <path class="cls-1" d="M302.03,457.89c-.08.45-.15.87-.15,1.24,0,1.7.94,2.64,2.86,2.64,1.09,0,2.15-.34,3.05-1.02l.64,2.03c-1.24.94-2.9,1.28-4.41,1.28-2.98,0-4.82-1.7-4.82-4.52,0-.49.04-1.02.15-1.54l2.3-11.68h-3.5l.41-2.26h3.54l.87-4.33h2.68l-.87,4.33h6.03l-.45,2.26h-6.03l-2.3,11.57Z"/>
    <path class="cls-1" d="M334.36,444.06l-3.96,19.82h-2.56l.64-3.13c-1.88,2.07-4.52,3.32-7.72,3.32-5.09,0-8.63-3.17-8.63-8.4,0-6.78,4.75-11.76,11.19-11.76,3.77,0,6.41,1.55,7.54,4.3l.83-4.15h2.68ZM329.92,452.43c0-3.88-2.37-6.18-6.52-6.18-4.94,0-8.59,3.92-8.59,9.31,0,3.88,2.37,6.14,6.52,6.14,4.94,0,8.59-3.88,8.59-9.27Z"/>
    <path class="cls-1" d="M358.55,450.35c0,.72-.08,1.47-.23,2.26l-2.26,11.27h-2.68l2.26-11.3c.11-.64.19-1.24.19-1.81,0-2.83-1.7-4.45-5.12-4.45-4.22,0-7.12,2.3-8.06,6.93l-2.11,10.63h-2.68l3.92-19.82h2.56l-.64,3.17c1.92-2.26,4.64-3.32,7.76-3.32,4.48,0,7.08,2.41,7.08,6.44Z"/>
    <path class="cls-1" d="M385.49,444.06l-3.96,19.82h-2.56l.64-3.13c-1.88,2.07-4.52,3.32-7.72,3.32-5.09,0-8.63-3.17-8.63-8.4,0-6.78,4.75-11.76,11.19-11.76,3.77,0,6.41,1.55,7.54,4.3l.83-4.15h2.68ZM381.05,452.43c0-3.88-2.37-6.18-6.52-6.18-4.94,0-8.59,3.92-8.59,9.31,0,3.88,2.37,6.14,6.52,6.14,4.94,0,8.59-3.88,8.59-9.27ZM376.9,441.01h-2.79l5.73-4.67h3.66l-6.59,4.67Z"/>
    <path class="cls-1" d="M388.81,455.67c0-6.78,4.79-11.76,11.53-11.76,3.62,0,6.33,1.32,7.8,3.96l-2.26,1.32c-1.13-1.96-3.05-2.94-5.77-2.94-4.97,0-8.63,3.92-8.63,9.31,0,3.88,2.37,6.14,6.6,6.14,2.52,0,4.82-.98,6.25-2.86l1.92,1.47c-1.77,2.37-4.9,3.77-8.29,3.77-5.65,0-9.16-3.32-9.16-8.4Z"/>
    <path class="cls-1" d="M408.1,461.66l1.28-2.11c1.51,1.32,4.14,2.19,6.86,2.19,3.81,0,5.88-1.32,5.88-3.54,0-4.48-11.23-1.39-11.23-8.1,0-3.77,3.39-6.18,8.59-6.18,2.52,0,5.2.72,6.71,1.85l-1.13,2.15c-1.55-1.17-3.77-1.69-5.8-1.69-3.66,0-5.73,1.47-5.73,3.62,0,4.6,11.23,1.47,11.23,8.06,0,3.92-3.5,6.18-8.78,6.18-3.24,0-6.33-1.02-7.88-2.41Z"/>
    <path class="cls-1" d="M450.68,444.06l-3.96,19.82h-2.56l.64-3.13c-1.88,2.07-4.52,3.32-7.72,3.32-5.09,0-8.63-3.17-8.63-8.4,0-6.78,4.75-11.76,11.19-11.76,3.77,0,6.41,1.55,7.54,4.3l.83-4.15h2.68ZM446.23,452.43c0-3.88-2.37-6.18-6.52-6.18-4.94,0-8.59,3.92-8.59,9.31,0,3.88,2.37,6.14,6.52,6.14,4.94,0,8.59-3.88,8.59-9.27Z"/>
    <path class="cls-1" d="M477.84,435.92l-5.58,27.96h-2.56l.64-3.13c-1.88,2.07-4.52,3.32-7.72,3.32-5.09,0-8.63-3.17-8.63-8.4,0-6.78,4.75-11.76,11.19-11.76,3.77,0,6.37,1.55,7.54,4.3l2.45-12.28h2.67ZM471.78,452.43c0-3.88-2.37-6.18-6.52-6.18-4.94,0-8.59,3.92-8.59,9.31,0,3.88,2.37,6.14,6.52,6.14,4.94,0,8.59-3.88,8.59-9.27Z"/>
    <path class="cls-1" d="M479.54,455.67c0-6.74,4.79-11.76,11.46-11.76,5.5,0,9.01,3.24,9.01,8.37,0,6.78-4.79,11.79-11.46,11.79-5.5,0-9.01-3.32-9.01-8.4ZM497.32,452.43c0-3.88-2.37-6.18-6.52-6.18-4.94,0-8.59,3.92-8.59,9.31,0,3.88,2.37,6.14,6.52,6.14,4.94,0,8.59-3.88,8.59-9.27ZM495.48,436.34h3.66l-6.59,4.67h-2.79l5.73-4.67Z"/>
  </g>
</svg>