<?xml version="1.0" encoding="UTF-8"?>
<svg id="Réteg_1" data-name="Réteg 1" xmlns="http://www.w3.org/2000/svg" viewBox="0 0 500 500">
  <defs>
    <style>
      .cls-1 {
        fill: #fff;
      }
    </style>
  </defs>
  <path class="cls-1" d="M369.99,236.31c14.96-12.81,23.67-31.4,23.67-51.53,0-37.49-30.5-67.98-68-67.98-.43,0-.86.02-1.29.02,1.18-6.13,1.79-12.38,1.79-18.66C326.16,44.03,282.13,0,228.01,0s-98.15,44.03-98.15,98.15c0,39.64,23.63,73.84,57.54,89.32-6.17,1.05-12.25,2.34-18.21,3.88-32.87-6.6-73.39-8.81-98.82,29.66-13.21,19.98-10.4,49.99,8.13,86.78,1.65,3.85,3.67,7.64,6.03,11.29.02.03.04.07.06.11,44.68,78.71,146.08,168.77,201.06,178.53,8.62,1.53,17.05,2.29,25.24,2.29,28.15,0,53.54-8.97,74.43-26.48,38.54-32.3,52.27-83.39,52.27-120.43,0-56.22-24.5-98.24-67.63-116.78ZM381.43,184.77c0,18.94-9.37,36.24-25.16,46.62-.43-.13-.88-.23-1.32-.36-.76-.21-1.52-.42-2.29-.62-.95-.25-1.9-.48-2.86-.71-.78-.18-1.55-.36-2.34-.54-.98-.21-1.97-.41-2.96-.61-.79-.15-1.57-.31-2.37-.45-1.01-.18-2.04-.34-3.07-.5-.79-.12-1.58-.25-2.38-.36-1.06-.15-2.14-.28-3.22-.4-.79-.09-1.57-.19-2.36-.27-1.13-.12-2.28-.21-3.43-.3-.75-.06-1.5-.13-2.25-.18-1.28-.09-2.58-.14-3.87-.2-.64-.03-1.28-.07-1.92-.09-1.95-.06-3.92-.1-5.91-.1-1.11,0-2.24-.02-3.38-.05-.38-.01-.77-.03-1.16-.05-.76-.03-1.53-.06-2.31-.1-.47-.03-.95-.06-1.43-.1-.71-.05-1.42-.09-2.14-.15-.52-.04-1.05-.1-1.58-.15-.69-.06-1.38-.13-2.09-.2-.55-.06-1.12-.13-1.68-.19-.7-.08-1.39-.16-2.1-.25-.58-.08-1.17-.16-1.76-.24-.71-.1-1.41-.2-2.13-.31-.61-.09-1.23-.19-1.85-.29-.72-.12-1.44-.23-2.17-.36-.64-.11-1.28-.23-1.93-.34-.41-.07-.83-.15-1.25-.23-.03-.03-.05-.05-.08-.08-.88-.96-1.73-1.95-2.54-2.96-.09-.12-.19-.23-.28-.35-.79-1.01-1.55-2.04-2.27-3.1-.09-.14-.19-.27-.28-.41-.71-1.06-1.38-2.14-2.01-3.24-.08-.14-.16-.29-.24-.43-.63-1.11-1.22-2.25-1.76-3.4-.07-.14-.13-.28-.19-.42-.55-1.17-1.05-2.36-1.52-3.56-.05-.12-.09-.25-.14-.37-.46-1.23-.89-2.48-1.26-3.74-.03-.1-.05-.19-.08-.29-.38-1.29-.71-2.6-.99-3.91-.01-.06-.02-.12-.03-.18-.29-1.36-.53-2.73-.71-4.11-.32-2.38-.48-4.86-.48-7.35,0-.53,0-1.05.03-1.65.1-3.38.49-6.69,1.16-9.9,4.7-22.47,22.91-40.13,46.33-43.61,2.66-.41,5.43-.61,8.24-.61,30.76,0,55.78,25.02,55.78,55.76ZM257.9,216.32c-.72-.2-1.45-.39-2.17-.6-3-.84-6.01-1.7-9.03-2.59-.66-.19-1.31-.39-1.97-.59-2.51-.74-5.02-1.5-7.52-2.26-.94-.29-1.88-.57-2.82-.86-2.86-.87-5.71-1.75-8.55-2.62-2.33-.72-4.68-1.44-7.03-2.16-.26-.08-.52-.16-.77-.24-2.08-.64-4.16-1.27-6.25-1.9-.69-.21-1.38-.41-2.08-.62-1.64-.49-3.29-.99-4.93-1.47-1.01-.3-2.01-.58-3.02-.87-1.33-.38-2.66-.77-3.99-1.15-.13-.04-.25-.07-.38-.11,19.99-2.65,41.38-2.66,61.65.07.03.14.07.29.1.43.09.42.19.83.28,1.25.11.47.22.95.34,1.42.1.41.22.82.33,1.23.13.47.26.94.4,1.41.12.41.25.81.38,1.21.15.47.3.93.46,1.4.14.4.28.8.43,1.2.17.46.34.92.51,1.38.15.4.31.79.47,1.18.19.45.37.9.57,1.35.17.39.34.77.52,1.16.2.45.41.89.62,1.33.18.38.37.76.57,1.13.22.44.44.87.67,1.31.2.37.4.74.61,1.11.14.26.28.52.43.78-.52-.13-1.05-.27-1.57-.4-2.41-.62-4.83-1.26-7.25-1.93ZM142.08,98.15c0-47.38,38.55-85.93,85.93-85.93s85.93,38.55,85.93,85.93c0,6.8-.79,13.54-2.36,20.11-.36.08-.72.17-1.08.25-.42.1-.85.19-1.27.29-.54.13-1.08.28-1.61.43-.4.11-.8.21-1.19.33-.57.17-1.13.35-1.7.53-.35.11-.71.22-1.06.34-.76.26-1.51.53-2.25.82-.4.15-.8.31-1.2.47-.61.25-1.22.49-1.82.75-.41.18-.82.37-1.22.56-.45.2-.89.41-1.33.62-.45.22-.89.45-1.33.67-.39.2-.77.4-1.16.6-.47.25-.93.51-1.39.78-.34.19-.68.39-1.02.59-.49.29-.96.58-1.44.88-.3.19-.59.37-.88.56-.5.33-1,.66-1.5,1-.25.17-.49.34-.73.51-.53.37-1.05.75-1.57,1.14-.18.14-.36.28-.54.41-.57.44-1.13.88-1.69,1.33-.09.08-.18.15-.28.23-13.68,11.31-22.73,27.82-24.35,46.36-9.57,3.56-19.62,5.36-29.95,5.36-47.38,0-85.93-38.55-85.93-85.93ZM377.5,464.15c-24.47,20.51-54.65,27.75-89.69,21.52-51.23-9.1-150.27-97.88-192.67-172.71-.02-.03-.03-.06-.05-.09-.72-1.28-1.41-2.55-2.1-3.82-.27-.5-.56-1-.82-1.49-.93-1.75-1.83-3.48-2.69-5.19,0,0,0,0,0,0h0c-11.49-22.8-22.36-54.25-8.89-74.62,17.2-26.01,43.38-33.24,87.53-24.16,17.34,3.56,36.05,9.32,54.13,14.9,2.42.74,4.84,1.49,7.28,2.24,17.04,5.22,34.42,10.34,51.01,13.59,0,0,0,0,0,0,12.4,2.42,23.26,3.6,33.18,3.6,1.92,0,3.83.03,5.71.1,12.97.44,25.03,2.41,35.96,5.88.68.21,1.35.43,2.05.67,43.19,14.65,67.97,54.21,67.97,108.52,0,43.08-18.8,86.67-47.9,111.06Z"/>
</svg>