<?xml version="1.0" encoding="UTF-8"?>
<svg id="Réteg_2" data-name="Réteg 2" xmlns="http://www.w3.org/2000/svg" viewBox="0 0 125.35 88.14">
  <defs>
    <style>
      .cls-1 {
        fill: #fff;
      }
    </style>
  </defs>
  <g id="Réteg_1" data-name="Réteg 1">
    <g>
      <path class="cls-1" d="M124.25,6.3l-38.02,37.77,38.02,37.77c.69-1.44,1.1-3.02,1.1-4.72V11.02c0-1.7-.42-3.28-1.1-4.72Z"/>
      <path class="cls-1" d="M114.33,0H11.02c-1.7,0-3.28.42-4.72,1.1l48.59,48.34c4.3,4.3,11.28,4.3,15.58,0L119.05,1.1c-1.44-.69-3.02-1.1-4.72-1.1Z"/>
      <path class="cls-1" d="M1.1,6.3c-.69,1.44-1.1,3.02-1.1,4.72v66.1c0,1.7.42,3.28,1.1,4.72l38.02-37.77L1.1,6.3Z"/>
      <path class="cls-1" d="M81.04,49.26l-5.38,5.38c-7.16,7.16-18.81,7.16-25.97,0l-5.38-5.38L6.3,87.03c1.44.69,3.02,1.1,4.72,1.1h103.32c1.7,0,3.28-.42,4.72-1.1l-38.02-37.77Z"/>
    </g>
  </g>
</svg>