<?xml version="1.0" encoding="UTF-8"?>
<svg id="Réteg_1" data-name="Réteg 1" xmlns="http://www.w3.org/2000/svg" viewBox="0 0 136.07 136.07">
  <defs>
    <style>
      .cls-1 {
        fill: #000000;
      }
    </style>
  </defs>
  <path class="cls-1" d="M129.61,30.27l-38.02,37.77,38.02,37.77c.69-1.44,1.1-3.02,1.1-4.72V34.99c0-1.7-.42-3.28-1.1-4.72Z"/>
  <path class="cls-1" d="M119.7,23.97H16.38c-1.7,0-3.28.42-4.72,1.1l48.59,48.34c4.3,4.3,11.28,4.3,15.58,0l48.59-48.34c-1.44-.69-3.02-1.1-4.72-1.1Z"/>
  <path class="cls-1" d="M6.47,30.27c-.69,1.44-1.1,3.02-1.1,4.72v66.1c0,1.7.42,3.28,1.1,4.72l38.02-37.77L6.47,30.27Z"/>
  <path class="cls-1" d="M86.4,73.23l-5.38,5.38c-7.16,7.16-18.81,7.16-25.97,0l-5.38-5.38L11.66,111c1.44.69,3.02,1.1,4.72,1.1h103.32c1.7,0,3.28-.42,4.72-1.1l-38.02-37.77Z"/>
</svg>