<svg xmlns="http://www.w3.org/2000/svg" xmlns:xlink="http://www.w3.org/1999/xlink" width="133" zoomAndPan="magnify" viewBox="0 0 99.75 69.749997" height="93" preserveAspectRatio="xMidYMid meet" version="1.0"><defs><clipPath id="93e154e6c3"><path d="M 0.0546875 0 L 99.449219 0 L 99.449219 69.5 L 0.0546875 69.5 Z M 0.0546875 0 " clip-rule="nonzero"/></clipPath><clipPath id="03fe545d0a"><path d="M 0.0546875 40 L 55 40 L 55 69.5 L 0.0546875 69.5 Z M 0.0546875 40 " clip-rule="nonzero"/></clipPath><clipPath id="b76f0cdc55"><path d="M 0.0546875 19 L 86 19 L 86 69.5 L 0.0546875 69.5 Z M 0.0546875 19 " clip-rule="nonzero"/></clipPath></defs><g clip-path="url(#93e154e6c3)"><path fill="#6d6b6b" d="M 99.617188 69.503906 L 0.0742188 69.503906 L 0.0742188 21.886719 C 0.53125 21.695312 1.023438 21.550781 1.523438 21.457031 C 1.640625 21.433594 1.761719 21.414062 1.878906 21.398438 C 3.070312 21.234375 4.316406 21.34375 5.417969 21.761719 C 8.773438 23.042969 11.054688 26.105469 13.324219 28.890625 C 15.589844 31.675781 18.347656 34.5 21.914062 34.9375 C 26.476562 35.492188 30.949219 31.066406 30.4375 26.5 C 29.796875 20.796875 23.222656 17.457031 21.71875 11.917969 C 20.417969 7.128906 24.003906 1.609375 28.910156 0.855469 C 34.441406 0.00390625 39.5625 4.652344 41.457031 9.917969 C 43.351562 15.179688 42.902344 20.945312 42.929688 26.542969 C 42.949219 31.203125 43.421875 36.140625 45.667969 40.132812 C 45.722656 40.226562 45.773438 40.316406 45.828125 40.410156 C 46.238281 41.105469 46.707031 41.773438 47.238281 42.402344 C 49.53125 45.121094 52.761719 46.839844 55.90625 48.496094 C 57.230469 49.191406 58.558594 49.890625 59.882812 50.585938 C 60.132812 50.71875 60.382812 50.847656 60.632812 50.980469 C 61.785156 51.585938 62.941406 52.195312 64.097656 52.800781 C 64.214844 52.863281 64.332031 52.925781 64.449219 52.988281 C 65.027344 53.292969 65.605469 53.597656 66.1875 53.902344 C 66.378906 54 66.566406 54.101562 66.757812 54.203125 L 66.761719 54.203125 C 68.554688 55.144531 70.347656 56.089844 72.144531 57.035156 C 75.433594 58.765625 79.105469 60.550781 82.71875 59.664062 C 86.023438 58.855469 88.835938 55.875 92.214844 56.292969 C 96.214844 56.785156 97.992188 61.515625 98.707031 65.484375 C 98.945312 66.789062 99.21875 68.179688 99.617188 69.503906 Z M 99.617188 69.503906 " fill-opacity="1" fill-rule="nonzero"/></g><g clip-path="url(#03fe545d0a)"><path fill="#bda78f" d="M 54.171875 69.503906 L 0.0742188 69.503906 L 0.0742188 40.984375 C 1.3125 42.738281 2.34375 44.707031 3.382812 46.578125 C 4.996094 49.484375 6.8125 52.351562 9.339844 54.511719 C 11.867188 56.667969 15.226562 58.054688 18.515625 57.566406 C 22.195312 57.019531 25.121094 54.320312 27.925781 51.878906 C 30.730469 49.433594 34.015625 47 37.730469 47.160156 C 42.3125 47.359375 45.777344 51.457031 47.65625 55.640625 C 49.53125 59.820312 50.488281 64.476562 53.152344 68.207031 C 53.472656 68.65625 53.8125 69.089844 54.171875 69.503906 Z M 54.171875 69.503906 " fill-opacity="1" fill-rule="nonzero"/></g><g clip-path="url(#b76f0cdc55)"><path fill="#000000" d="M 84.550781 68.96875 C 80.230469 65.589844 74.898438 63.980469 70.441406 60.835938 C 68.402344 59.398438 66.539062 57.613281 65.359375 55.390625 C 65.121094 54.9375 64.902344 54.445312 64.722656 53.925781 C 65.386719 54.117188 66.074219 54.21875 66.757812 54.203125 L 66.761719 54.203125 C 67.355469 54.191406 67.949219 54.09375 68.523438 53.890625 C 70.375 53.246094 71.539062 51.546875 71.476562 49.582031 C 71.414062 47.746094 70.109375 46.183594 68.183594 46.246094 C 65.921875 46.324219 64.285156 48.242188 64 50.378906 C 63.890625 51.191406 63.933594 52.007812 64.097656 52.800781 C 64.140625 53.023438 64.195312 53.246094 64.257812 53.46875 C 63.371094 53.140625 62.539062 52.65625 61.832031 52.085938 C 61.402344 51.742188 61.007812 51.371094 60.632812 50.980469 C 59.191406 49.476562 58.074219 47.675781 56.863281 45.992188 C 55.40625 43.972656 53.730469 42.042969 51.40625 41.019531 C 49.601562 40.222656 47.625 40.007812 45.667969 40.132812 C 45.214844 40.160156 44.765625 40.207031 44.316406 40.269531 C 38.84375 41.03125 34.046875 44.097656 28.625 45.035156 C 26.007812 45.484375 23.351562 45.300781 20.882812 44.296875 C 18.691406 43.40625 16.761719 41.96875 15.085938 40.316406 C 11.664062 36.945312 9.347656 32.753906 6.90625 28.671875 C 5.40625 26.164062 3.8125 23.621094 1.878906 21.398438 C 1.308594 20.742188 0.707031 20.113281 0.0742188 19.519531 L 0.0742188 19.941406 C 0.578125 20.421875 1.058594 20.929688 1.523438 21.457031 C 3.003906 23.132812 4.292969 25 5.476562 26.886719 C 8.105469 31.078125 10.34375 35.519531 13.660156 39.238281 C 16.863281 42.828125 21.074219 45.625 26.046875 45.570312 C 31.90625 45.503906 37.015625 42.113281 42.621094 40.871094 C 43.667969 40.636719 44.746094 40.46875 45.828125 40.410156 C 47.484375 40.316406 49.148438 40.476562 50.714844 41.050781 C 53.425781 42.039062 55.277344 44.246094 56.894531 46.535156 C 57.859375 47.898438 58.785156 49.320312 59.882812 50.585938 C 60.457031 51.25 61.082031 51.871094 61.78125 52.414062 C 62.542969 53.007812 63.429688 53.496094 64.363281 53.8125 C 64.785156 55.097656 65.480469 56.304688 66.285156 57.351562 C 69.734375 61.835938 75.238281 63.761719 80.039062 66.382812 C 81.695312 67.289062 83.261719 68.332031 84.714844 69.503906 L 85.214844 69.503906 C 84.996094 69.324219 84.773438 69.144531 84.550781 68.96875 Z M 64.449219 52.988281 C 64.015625 51.160156 64.136719 49.195312 65.472656 47.804688 C 67.015625 46.199219 70.007812 45.960938 70.9375 48.332031 C 71.675781 50.21875 70.800781 52.464844 69.011719 53.371094 C 68.121094 53.824219 67.152344 53.972656 66.1875 53.902344 C 65.65625 53.859375 65.125 53.753906 64.613281 53.589844 C 64.550781 53.390625 64.496094 53.191406 64.449219 52.988281 Z M 64.449219 52.988281 " fill-opacity="1" fill-rule="nonzero"/></g></svg>