<svg xmlns="http://www.w3.org/2000/svg" xmlns:xlink="http://www.w3.org/1999/xlink" width="133" zoomAndPan="magnify" viewBox="0 0 99.75 69.749997" height="93" preserveAspectRatio="xMidYMid meet" version="1.0"><defs><clipPath id="f215fc3d91"><path d="M 2 6 L 99.449219 6 L 99.449219 69.5 L 2 69.5 Z M 2 6 " clip-rule="nonzero"/></clipPath><clipPath id="0c2c977d28"><path d="M 22 31 L 99.449219 31 L 99.449219 69.5 L 22 69.5 Z M 22 31 " clip-rule="nonzero"/></clipPath><clipPath id="816f97013c"><path d="M 27 46 L 99.449219 46 L 99.449219 69.5 L 27 69.5 Z M 27 46 " clip-rule="nonzero"/></clipPath></defs><g clip-path="url(#f215fc3d91)"><path fill="#6d6b6b" d="M 97.40625 50.011719 C 98.402344 49.75 99.382812 49.429688 100.335938 49.046875 L 100.335938 69.941406 L 28.03125 69.941406 C 27.96875 70.039062 27.902344 70.136719 27.839844 70.234375 C 27.785156 70.15625 27.730469 70.078125 27.675781 69.996094 C 27.660156 69.976562 27.648438 69.957031 27.636719 69.941406 L 14.835938 69.941406 C 14.113281 66.527344 13.195312 63.191406 11.472656 60.171875 C 8.542969 55.019531 3.382812 50.964844 2.214844 45.152344 C 0.957031 38.878906 5.765625 31.996094 12.117188 31.210938 C 18.464844 30.425781 24.882812 36.132812 24.652344 42.527344 C 24.523438 46.136719 22.605469 49.660156 23.28125 53.207031 C 23.394531 53.789062 23.578125 54.34375 23.824219 54.867188 C 25.464844 58.355469 29.851562 60.40625 33.753906 59.699219 C 36.742188 59.160156 39.324219 57.328125 41.199219 54.902344 C 42.136719 53.691406 42.894531 52.335938 43.4375 50.917969 C 44.609375 47.863281 44.914062 44.667969 44.691406 41.429688 C 44.308594 35.742188 46.027344 30.128906 49.527344 25.625 C 49.597656 25.535156 49.664062 25.441406 49.730469 25.347656 C 51.582031 22.667969 51.996094 19.273438 53.3125 16.296875 C 56.214844 9.714844 63.984375 5.6875 71.035156 7.101562 C 75.0625 7.910156 79.242188 11.765625 77.683594 15.566406 C 76.691406 17.988281 73.902344 19.035156 71.898438 20.722656 C 66.941406 24.90625 67.308594 32.949219 70.503906 38.59375 C 70.839844 39.1875 71.199219 39.761719 71.585938 40.320312 C 75.597656 46.132812 82.257812 50.082031 89.304688 50.710938 C 91.585938 50.914062 93.890625 50.769531 96.132812 50.308594 C 96.558594 50.21875 96.984375 50.121094 97.40625 50.011719 Z M 97.40625 50.011719 " fill-opacity="1" fill-rule="nonzero"/></g><g clip-path="url(#0c2c977d28)"><path fill="#bda78f" d="M 100.335938 31.949219 L 100.335938 69.941406 L 28.03125 69.941406 C 27.96875 70.039062 27.902344 70.136719 27.839844 70.234375 C 27.785156 70.15625 27.730469 70.078125 27.675781 69.996094 C 27.660156 69.976562 27.648438 69.957031 27.636719 69.941406 C 27.105469 69.167969 26.578125 68.398438 26.050781 67.628906 C 23.730469 64.25 21.3125 60.0625 22.945312 56.304688 C 23.171875 55.777344 23.46875 55.300781 23.824219 54.867188 C 25.40625 52.929688 28.113281 51.925781 30.675781 51.921875 C 33.8125 51.921875 36.8125 53.121094 39.71875 54.300781 C 40.210938 54.5 40.703125 54.703125 41.199219 54.902344 C 45.789062 56.761719 50.40625 58.585938 55.140625 60 C 55.34375 60.058594 55.550781 60.121094 55.753906 60.179688 C 57.890625 60.796875 60.046875 61.332031 62.234375 61.742188 C 65.550781 62.363281 69.066406 62.6875 72.222656 61.5 C 74.15625 60.773438 75.902344 59.335938 76.902344 57.558594 C 76.953125 57.464844 77.003906 57.371094 77.054688 57.273438 C 77.585938 56.226562 77.859375 55.066406 77.757812 53.871094 C 77.332031 48.816406 70.84375 45.121094 71.585938 40.320312 C 71.613281 40.128906 71.65625 39.933594 71.710938 39.738281 C 72.390625 37.25 74.988281 35.714844 77.539062 35.3125 C 80.089844 34.910156 82.683594 35.378906 85.261719 35.5 C 90.488281 35.746094 95.742188 34.449219 100.335938 31.949219 Z M 100.335938 31.949219 " fill-opacity="1" fill-rule="nonzero"/></g><g clip-path="url(#816f97013c)"><path fill="#000000" d="M 96.132812 50.308594 C 93.734375 51.402344 91.304688 52.421875 88.84375 53.367188 C 84.996094 54.84375 81.054688 56.199219 77.054688 57.273438 C 75.648438 57.65625 74.234375 58 72.816406 58.300781 C 69.042969 59.109375 64.769531 59.394531 61.117188 58.015625 C 62.726562 56.78125 63.839844 55.019531 64.125 52.976562 C 64.402344 50.96875 63.816406 48.703125 62.109375 47.46875 C 60.691406 46.445312 58.695312 46.253906 57.078125 46.894531 C 55.203125 47.640625 54.265625 49.476562 54.566406 51.453125 C 54.933594 53.882812 56.765625 55.875 58.78125 57.136719 C 59.359375 57.5 59.964844 57.808594 60.589844 58.074219 C 58.941406 59.210938 57.082031 59.765625 55.140625 60 C 52.136719 60.359375 48.945312 59.960938 46.046875 59.789062 C 43.289062 59.628906 40.464844 59.660156 37.839844 60.625 C 35.777344 61.382812 33.941406 62.640625 32.351562 64.148438 C 30.539062 65.867188 29.058594 67.855469 27.710938 69.941406 C 27.699219 69.957031 27.6875 69.976562 27.675781 69.996094 C 27.730469 70.078125 27.785156 70.15625 27.839844 70.234375 C 27.902344 70.136719 27.96875 70.039062 28.03125 69.941406 C 28.910156 68.589844 29.851562 67.28125 30.910156 66.050781 C 32.496094 64.21875 34.339844 62.578125 36.519531 61.484375 C 39.238281 60.121094 42.253906 59.882812 45.25 60.015625 C 48.632812 60.164062 52.324219 60.71875 55.753906 60.179688 C 57.453125 59.914062 59.089844 59.378906 60.589844 58.394531 C 60.6875 58.328125 60.785156 58.261719 60.878906 58.191406 C 62.507812 58.835938 64.257812 59.171875 66 59.253906 C 69.101562 59.394531 72.179688 58.78125 75.171875 58.015625 C 75.75 57.871094 76.328125 57.71875 76.902344 57.558594 C 79.15625 56.945312 81.394531 56.261719 83.613281 55.523438 C 88.3125 53.957031 92.921875 52.113281 97.40625 50.011719 C 98.390625 49.550781 99.367188 49.078125 100.335938 48.59375 L 100.335938 48.292969 C 98.949219 48.992188 97.546875 49.664062 96.132812 50.308594 Z M 60.828125 57.902344 C 59.539062 57.382812 58.332031 56.640625 57.257812 55.636719 C 55.480469 53.972656 53.867188 51.042969 55.300781 48.671875 C 56.292969 47.027344 58.484375 46.519531 60.261719 46.933594 C 62.492188 47.453125 63.820312 49.445312 63.921875 51.675781 C 64.03125 54.09375 62.855469 56.367188 60.949219 57.816406 C 60.910156 57.84375 60.867188 57.875 60.828125 57.902344 Z M 60.828125 57.902344 " fill-opacity="1" fill-rule="nonzero"/></g></svg>