<?xml version="1.0" encoding="UTF-8"?>
<svg id="Réteg_2" data-name="Réteg 2" xmlns="http://www.w3.org/2000/svg" viewBox="0 0 88.14 88.14">
  <defs>
    <style>
      .cls-1 {
        fill: #fff;
      }
    </style>
  </defs>
  <g id="Réteg_1" data-name="Réteg 1">
    <path class="cls-1" d="M81.07,57.85c-5.4,0-10.69-.84-15.72-2.5-2.46-.84-5.48-.07-6.99,1.47l-9.91,7.48c-11.49-6.13-18.57-13.21-24.62-24.62l7.26-9.65c1.89-1.88,2.56-4.64,1.75-7.22-1.67-5.05-2.51-10.34-2.51-15.74,0-3.9-3.17-7.07-7.07-7.07H7.07C3.17,0,0,3.17,0,7.07c0,44.7,36.37,81.07,81.07,81.07,3.9,0,7.07-3.17,7.07-7.07v-16.14c0-3.9-3.17-7.07-7.07-7.07Z"/>
  </g>
</svg>