<svg xmlns="http://www.w3.org/2000/svg" xmlns:xlink="http://www.w3.org/1999/xlink" width="1080" zoomAndPan="magnify" viewBox="0 0 810 809.999993" height="1080" preserveAspectRatio="xMidYMid meet" version="1.0"><defs><clipPath id="099ef842b2"><path d="M 22.519531 5.550781 L 757.519531 5.550781 L 757.519531 810 L 22.519531 810 Z M 22.519531 5.550781 " clip-rule="nonzero"/></clipPath></defs><g clip-path="url(#099ef842b2)"><path fill="#ccc5be" d="M 757.695312 350.996094 L 757.695312 539.390625 C 757.699219 542.507812 757.628906 545.625 757.484375 548.742188 C 757.339844 551.855469 757.125 554.96875 756.835938 558.070312 C 756.550781 561.175781 756.1875 564.273438 755.757812 567.363281 C 755.324219 570.449219 754.820312 573.527344 754.246094 576.59375 C 753.671875 579.65625 753.027344 582.707031 752.308594 585.742188 C 751.59375 588.777344 750.804688 591.792969 749.949219 594.792969 C 749.09375 597.789062 748.167969 600.765625 747.171875 603.722656 C 746.175781 606.679688 745.113281 609.609375 743.980469 612.515625 C 742.847656 615.421875 741.652344 618.296875 740.386719 621.148438 C 739.121094 624 737.789062 626.816406 736.390625 629.605469 C 734.996094 632.394531 733.535156 635.148438 732.011719 637.871094 C 730.488281 640.589844 728.898438 643.273438 727.25 645.917969 C 725.601562 648.566406 723.890625 651.171875 722.121094 653.738281 C 720.351562 656.308594 718.519531 658.832031 716.632812 661.3125 C 714.746094 663.796875 712.800781 666.234375 710.800781 668.625 C 708.796875 671.015625 706.742188 673.359375 704.632812 675.65625 C 702.523438 677.953125 700.359375 680.199219 698.144531 682.394531 C 695.929688 684.589844 693.667969 686.734375 691.351562 688.824219 C 689.039062 690.914062 686.675781 692.949219 684.269531 694.929688 C 681.859375 696.910156 679.40625 698.832031 676.910156 700.699219 C 674.410156 702.566406 671.871094 704.375 669.289062 706.121094 C 666.707031 707.871094 664.085938 709.558594 661.421875 711.183594 C 658.761719 712.808594 656.066406 714.375 653.332031 715.875 C 650.597656 717.375 647.832031 718.8125 645.03125 720.1875 C 642.230469 721.558594 639.402344 722.863281 636.539062 724.105469 C 633.679688 725.347656 630.792969 726.519531 627.875 727.628906 C 624.960938 728.734375 622.019531 729.773438 619.058594 730.742188 C 616.09375 731.710938 613.109375 732.613281 610.101562 733.445312 C 607.097656 734.273438 604.074219 735.035156 601.03125 735.726562 C 597.992188 736.417969 594.9375 737.035156 591.867188 737.585938 C 588.796875 738.132812 585.714844 738.609375 582.625 739.015625 C 579.53125 739.421875 576.433594 739.753906 573.324219 740.015625 C 573.03125 740.039062 572.738281 740.054688 572.449219 740.054688 C 571.785156 740.050781 571.128906 739.988281 570.476562 739.859375 C 569.828125 739.730469 569.191406 739.542969 568.578125 739.292969 C 567.960938 739.042969 567.375 738.738281 566.820312 738.378906 C 566.261719 738.015625 565.746094 737.605469 565.265625 737.144531 C 564.789062 736.683594 564.359375 736.183594 563.976562 735.640625 C 563.59375 735.097656 563.265625 734.523438 562.992188 733.917969 C 562.722656 733.3125 562.507812 732.6875 562.355469 732.039062 C 562.203125 731.394531 562.113281 730.738281 562.085938 730.078125 C 562.058594 729.414062 562.09375 728.753906 562.195312 728.097656 C 562.292969 727.441406 562.453125 726.800781 562.675781 726.175781 C 562.898438 725.546875 563.175781 724.949219 563.511719 724.378906 C 563.847656 723.804688 564.238281 723.269531 564.675781 722.773438 C 565.117188 722.273438 565.597656 721.820312 566.121094 721.414062 C 566.648438 721.011719 567.207031 720.65625 567.800781 720.359375 C 568.394531 720.0625 569.007812 719.820312 569.648438 719.640625 C 570.285156 719.460938 570.9375 719.339844 571.597656 719.285156 C 574.382812 719.050781 577.164062 718.75 579.9375 718.386719 C 582.710938 718.023438 585.472656 717.597656 588.222656 717.105469 C 590.976562 716.613281 593.714844 716.058594 596.441406 715.4375 C 599.171875 714.820312 601.882812 714.136719 604.574219 713.390625 C 607.269531 712.644531 609.949219 711.835938 612.605469 710.96875 C 615.261719 710.097656 617.898438 709.167969 620.511719 708.175781 C 623.125 707.183594 625.714844 706.128906 628.28125 705.015625 C 630.847656 703.902344 633.382812 702.730469 635.894531 701.5 C 638.40625 700.269531 640.886719 698.980469 643.335938 697.636719 C 645.789062 696.289062 648.207031 694.886719 650.59375 693.429688 C 652.976562 691.96875 655.328125 690.457031 657.644531 688.890625 C 659.960938 687.320312 662.238281 685.699219 664.476562 684.027344 C 666.714844 682.351562 668.917969 680.628906 671.074219 678.851562 C 673.234375 677.074219 675.351562 675.25 677.429688 673.375 C 679.503906 671.5 681.53125 669.578125 683.519531 667.609375 C 685.503906 665.640625 687.441406 663.628906 689.335938 661.566406 C 691.226562 659.507812 693.070312 657.40625 694.863281 655.261719 C 696.65625 653.117188 698.402344 650.933594 700.09375 648.707031 C 701.785156 646.480469 703.425781 644.214844 705.011719 641.914062 C 706.601562 639.613281 708.132812 637.273438 709.609375 634.902344 C 711.089844 632.527344 712.511719 630.121094 713.878906 627.683594 C 715.246094 625.242188 716.554688 622.773438 717.804688 620.273438 C 719.058594 617.773438 720.25 615.242188 721.386719 612.6875 C 722.519531 610.132812 723.59375 607.550781 724.609375 604.945312 C 725.621094 602.339844 726.574219 599.710938 727.46875 597.0625 C 728.359375 594.410156 729.1875 591.742188 729.957031 589.054688 C 730.722656 586.363281 731.429688 583.660156 732.070312 580.9375 C 732.714844 578.214844 733.292969 575.480469 733.808594 572.734375 C 734.320312 569.984375 734.773438 567.226562 735.160156 564.457031 C 735.546875 561.6875 735.867188 558.910156 736.125 556.125 C 736.382812 553.339844 736.574219 550.550781 736.703125 547.757812 C 736.832031 544.964844 736.894531 542.171875 736.894531 539.375 L 736.894531 350.996094 C 736.902344 350.320312 736.980469 349.652344 737.121094 348.988281 C 737.261719 348.328125 737.464844 347.6875 737.730469 347.066406 C 738 346.445312 738.320312 345.855469 738.703125 345.296875 C 739.085938 344.738281 739.515625 344.222656 739.996094 343.746094 C 740.480469 343.273438 741.003906 342.851562 741.566406 342.476562 C 742.132812 342.105469 742.726562 341.792969 743.351562 341.535156 C 743.976562 341.28125 744.621094 341.085938 745.285156 340.957031 C 745.949219 340.824219 746.617188 340.761719 747.292969 340.761719 C 747.96875 340.761719 748.640625 340.824219 749.304688 340.957031 C 749.964844 341.085938 750.609375 341.28125 751.238281 341.535156 C 751.863281 341.792969 752.457031 342.105469 753.023438 342.476562 C 753.585938 342.851562 754.109375 343.273438 754.589844 343.746094 C 755.074219 344.222656 755.503906 344.738281 755.886719 345.296875 C 756.265625 345.855469 756.589844 346.445312 756.855469 347.066406 C 757.125 347.6875 757.328125 348.328125 757.46875 348.988281 C 757.609375 349.652344 757.683594 350.320312 757.695312 350.996094 Z M 153.667969 40.636719 C 164.78125 35.929688 176.257812 32.378906 188.089844 29.984375 C 199.921875 27.59375 211.875 26.40625 223.945312 26.425781 C 224.636719 26.4375 225.320312 26.378906 226 26.253906 C 226.679688 26.128906 227.339844 25.9375 227.980469 25.683594 C 228.621094 25.425781 229.230469 25.109375 229.804688 24.730469 C 230.382812 24.355469 230.917969 23.921875 231.410156 23.4375 C 231.902344 22.957031 232.339844 22.425781 232.726562 21.855469 C 233.117188 21.285156 233.441406 20.679688 233.707031 20.042969 C 233.976562 19.40625 234.175781 18.75 234.3125 18.074219 C 234.449219 17.398438 234.515625 16.714844 234.515625 16.023438 C 234.515625 15.335938 234.449219 14.652344 234.3125 13.972656 C 234.175781 13.296875 233.976562 12.640625 233.707031 12.003906 C 233.441406 11.367188 233.117188 10.765625 232.730469 10.191406 C 232.339844 9.621094 231.902344 9.09375 231.410156 8.609375 C 230.917969 8.125 230.382812 7.695312 229.804688 7.316406 C 229.230469 6.9375 228.621094 6.621094 227.980469 6.367188 C 227.339844 6.109375 226.679688 5.917969 226 5.792969 C 225.320312 5.667969 224.636719 5.613281 223.945312 5.621094 C 220.652344 5.621094 217.355469 5.699219 214.066406 5.859375 C 210.773438 6.019531 207.488281 6.257812 204.207031 6.582031 C 200.929688 6.902344 197.660156 7.304688 194.398438 7.785156 C 191.136719 8.265625 187.890625 8.828125 184.660156 9.46875 C 181.425781 10.113281 178.210938 10.832031 175.015625 11.632812 C 171.816406 12.429688 168.644531 13.308594 165.488281 14.265625 C 162.335938 15.21875 159.207031 16.25 156.101562 17.359375 C 153 18.46875 149.925781 19.652344 146.878906 20.914062 C 143.835938 22.175781 140.824219 23.507812 137.84375 24.917969 C 134.863281 26.324219 131.921875 27.804688 129.015625 29.359375 C 126.105469 30.910156 123.242188 32.535156 120.414062 34.226562 C 117.585938 35.921875 114.800781 37.683594 112.0625 39.515625 C 109.320312 41.34375 106.628906 43.242188 103.980469 45.203125 C 101.332031 47.167969 98.734375 49.195312 96.1875 51.285156 C 93.640625 53.375 91.144531 55.527344 88.703125 57.738281 C 86.261719 59.953125 83.875 62.222656 81.546875 64.554688 C 79.214844 66.886719 76.945312 69.269531 74.730469 71.714844 C 72.519531 74.15625 70.367188 76.648438 68.277344 79.199219 C 66.183594 81.746094 64.160156 84.34375 62.195312 86.988281 C 60.234375 89.636719 58.335938 92.332031 56.503906 95.070312 C 54.675781 97.8125 52.914062 100.59375 51.21875 103.421875 C 49.527344 106.25 47.902344 109.117188 46.351562 112.023438 C 44.796875 114.929688 43.316406 117.871094 41.910156 120.851562 C 40.5 123.832031 39.164062 126.84375 37.90625 129.890625 C 36.644531 132.933594 35.460938 136.007812 34.351562 139.113281 C 33.242188 142.214844 32.210938 145.34375 31.253906 148.496094 C 30.300781 151.652344 29.421875 154.828125 28.621094 158.023438 C 27.824219 161.222656 27.101562 164.4375 26.460938 167.667969 C 25.820312 170.902344 25.257812 174.148438 24.777344 177.40625 C 24.292969 180.667969 23.894531 183.9375 23.570312 187.21875 C 23.25 190.496094 23.011719 193.78125 22.851562 197.074219 C 22.691406 200.367188 22.613281 203.660156 22.613281 206.957031 L 22.613281 318.890625 C 22.601562 319.582031 22.660156 320.265625 22.785156 320.945312 C 22.910156 321.621094 23.101562 322.28125 23.355469 322.921875 C 23.613281 323.5625 23.929688 324.171875 24.308594 324.75 C 24.6875 325.328125 25.117188 325.863281 25.601562 326.355469 C 26.085938 326.847656 26.613281 327.285156 27.183594 327.671875 C 27.753906 328.058594 28.359375 328.386719 28.996094 328.652344 C 29.632812 328.917969 30.289062 329.121094 30.964844 329.257812 C 31.640625 329.394531 32.324219 329.460938 33.015625 329.460938 C 33.707031 329.460938 34.390625 329.394531 35.066406 329.257812 C 35.742188 329.121094 36.398438 328.917969 37.035156 328.652344 C 37.671875 328.386719 38.277344 328.058594 38.847656 327.671875 C 39.417969 327.285156 39.945312 326.847656 40.429688 326.355469 C 40.914062 325.863281 41.34375 325.328125 41.722656 324.75 C 42.101562 324.171875 42.417969 323.5625 42.675781 322.921875 C 42.929688 322.28125 43.121094 321.621094 43.246094 320.945312 C 43.371094 320.265625 43.429688 319.582031 43.417969 318.890625 L 43.417969 206.964844 C 43.417969 202.558594 43.582031 198.15625 43.90625 193.761719 C 44.230469 189.367188 44.710938 184.992188 45.355469 180.632812 C 46 176.273438 46.800781 171.945312 47.761719 167.644531 C 48.722656 163.34375 49.839844 159.085938 51.113281 154.867188 C 52.382812 150.648438 53.808594 146.480469 55.382812 142.367188 C 56.960938 138.253906 58.6875 134.203125 60.558594 130.214844 C 62.433594 126.226562 64.449219 122.3125 66.609375 118.46875 C 68.769531 114.628906 71.066406 110.875 73.5 107.199219 C 75.933594 103.527344 78.5 99.949219 81.195312 96.464844 C 83.890625 92.980469 86.710938 89.597656 89.65625 86.320312 C 92.597656 83.039062 95.65625 79.875 98.832031 76.820312 C 102.007812 73.765625 105.289062 70.828125 108.679688 68.015625 C 112.070312 65.199219 115.558594 62.511719 119.144531 59.953125 C 122.730469 57.394531 126.40625 54.96875 130.171875 52.679688 C 133.933594 50.386719 137.777344 48.238281 141.699219 46.226562 C 145.621094 44.21875 149.609375 42.355469 153.667969 40.636719 Z M 702.242188 539.390625 L 702.242188 206.964844 C 702.242188 126.410156 636.941406 61.105469 556.386719 61.105469 L 223.9375 61.105469 C 143.382812 61.105469 78.078125 126.40625 78.078125 206.964844 L 78.078125 539.390625 C 78.078125 619.945312 143.378906 685.25 223.9375 685.25 L 448.710938 685.25 L 429.914062 809.996094 L 552.949219 685.246094 L 556.363281 685.246094 C 636.917969 685.246094 702.21875 619.945312 702.21875 539.390625 Z M 702.242188 539.390625 " fill-opacity="1" fill-rule="nonzero"/></g></svg>