<svg xmlns="http://www.w3.org/2000/svg" xmlns:xlink="http://www.w3.org/1999/xlink" width="120" zoomAndPan="magnify" viewBox="0 0 90 119.999999" height="160" preserveAspectRatio="xMidYMid meet" version="1.0"><defs><clipPath id="36c3bab31f"><path d="M 0 0 L 90 0 L 90 62.800781 L 0 62.800781 Z M 0 0 " clip-rule="nonzero"/></clipPath></defs><g clip-path="url(#36c3bab31f)"><path fill="#6d6b6b" d="M 89.972656 -0.00390625 L 0.0273438 -0.00390625 L 0.0273438 43.023438 C 0.441406 43.195312 0.886719 43.328125 1.339844 43.410156 C 1.445312 43.433594 1.550781 43.449219 1.660156 43.464844 C 2.738281 43.613281 3.863281 43.515625 4.855469 43.136719 C 7.890625 41.980469 9.949219 39.210938 12 36.695312 C 14.050781 34.175781 16.539062 31.625 19.761719 31.234375 C 23.886719 30.730469 27.925781 34.730469 27.464844 38.855469 C 26.886719 44.007812 20.945312 47.027344 19.585938 52.03125 C 18.410156 56.359375 21.652344 61.34375 26.085938 62.027344 C 31.082031 62.796875 35.710938 58.597656 37.421875 53.839844 C 39.132812 49.082031 38.730469 43.875 38.75 38.816406 C 38.769531 34.605469 39.199219 30.144531 41.226562 26.539062 C 41.273438 26.453125 41.324219 26.371094 41.371094 26.285156 C 41.742188 25.65625 42.167969 25.054688 42.644531 24.484375 C 44.714844 22.03125 47.636719 20.476562 50.480469 18.980469 C 51.675781 18.351562 52.871094 17.722656 54.070312 17.089844 C 54.296875 16.972656 54.523438 16.855469 54.75 16.734375 C 55.792969 16.1875 56.835938 15.636719 57.878906 15.089844 C 57.984375 15.035156 58.089844 14.976562 58.195312 14.921875 C 58.71875 14.644531 59.242188 14.371094 59.765625 14.097656 C 59.941406 14.003906 60.113281 13.914062 60.285156 13.824219 C 61.90625 12.96875 63.527344 12.117188 65.148438 11.265625 C 68.125 9.699219 71.441406 8.089844 74.703125 8.886719 C 77.691406 9.621094 80.234375 12.3125 83.285156 11.933594 C 86.898438 11.492188 88.507812 7.214844 89.152344 3.632812 C 89.367188 2.449219 89.617188 1.195312 89.972656 -0.00390625 Z M 89.972656 -0.00390625 " fill-opacity="1" fill-rule="nonzero"/></g><path fill="#bda78f" d="M 48.910156 -0.00390625 L 0.0273438 -0.00390625 L 0.0273438 25.765625 C 1.148438 24.183594 2.078125 22.40625 3.019531 20.714844 C 4.476562 18.085938 6.117188 15.496094 8.398438 13.546875 C 10.683594 11.59375 13.722656 10.34375 16.691406 10.785156 C 20.015625 11.28125 22.664062 13.714844 25.195312 15.925781 C 27.730469 18.132812 30.695312 20.332031 34.054688 20.1875 C 38.195312 20.007812 41.324219 16.304688 43.023438 12.527344 C 44.71875 8.746094 45.582031 4.542969 47.988281 1.167969 C 48.277344 0.761719 48.585938 0.371094 48.910156 -0.00390625 Z M 48.910156 -0.00390625 " fill-opacity="1" fill-rule="nonzero"/><path fill="#000000" d="M 76.359375 0.480469 C 72.457031 3.53125 67.640625 4.988281 63.609375 7.828125 C 61.769531 9.128906 60.085938 10.742188 59.019531 12.75 C 58.804688 13.15625 58.605469 13.605469 58.445312 14.074219 C 59.042969 13.902344 59.664062 13.8125 60.285156 13.824219 C 60.824219 13.835938 61.359375 13.921875 61.878906 14.105469 C 63.550781 14.6875 64.605469 16.222656 64.546875 17.996094 C 64.492188 19.65625 63.3125 21.070312 61.570312 21.011719 C 59.527344 20.941406 58.050781 19.210938 57.792969 17.277344 C 57.695312 16.542969 57.734375 15.808594 57.878906 15.089844 C 57.917969 14.886719 57.96875 14.6875 58.023438 14.488281 C 57.222656 14.78125 56.472656 15.21875 55.832031 15.734375 C 55.445312 16.046875 55.085938 16.382812 54.75 16.734375 C 53.445312 18.09375 52.4375 19.722656 51.339844 21.242188 C 50.027344 23.066406 48.511719 24.8125 46.414062 25.738281 C 44.78125 26.457031 42.992188 26.648438 41.226562 26.539062 C 40.816406 26.511719 40.410156 26.46875 40.003906 26.414062 C 35.058594 25.726562 30.726562 22.953125 25.824219 22.109375 C 23.464844 21.699219 21.058594 21.867188 18.828125 22.773438 C 16.851562 23.578125 15.105469 24.878906 13.59375 26.371094 C 10.503906 29.417969 8.40625 33.203125 6.203125 36.894531 C 4.847656 39.160156 3.40625 41.457031 1.660156 43.464844 C 1.144531 44.058594 0.601562 44.625 0.0273438 45.160156 L 0.0273438 44.78125 C 0.484375 44.347656 0.917969 43.886719 1.339844 43.410156 C 2.675781 41.898438 3.839844 40.210938 4.910156 38.507812 C 7.285156 34.71875 9.308594 30.707031 12.304688 27.347656 C 15.199219 24.101562 19.003906 21.574219 23.496094 21.625 C 28.792969 21.683594 33.410156 24.75 38.472656 25.871094 C 39.417969 26.082031 40.394531 26.234375 41.371094 26.285156 C 42.871094 26.371094 44.371094 26.226562 45.789062 25.707031 C 48.234375 24.8125 49.910156 22.820312 51.371094 20.75 C 52.242188 19.519531 53.078125 18.234375 54.070312 17.089844 C 54.589844 16.492188 55.152344 15.929688 55.785156 15.441406 C 56.476562 14.902344 57.273438 14.460938 58.121094 14.175781 C 58.5 13.015625 59.128906 11.921875 59.855469 10.980469 C 62.976562 6.925781 67.945312 5.183594 72.285156 2.816406 C 73.78125 2 75.195312 1.058594 76.511719 -0.00390625 L 76.960938 -0.00390625 C 76.761719 0.160156 76.5625 0.324219 76.359375 0.480469 Z M 58.195312 14.921875 C 57.804688 16.570312 57.914062 18.347656 59.121094 19.605469 C 60.515625 21.054688 63.21875 21.273438 64.058594 19.125 C 64.726562 17.421875 63.9375 15.394531 62.320312 14.574219 C 61.515625 14.164062 60.636719 14.03125 59.765625 14.097656 C 59.289062 14.132812 58.808594 14.230469 58.34375 14.378906 C 58.289062 14.558594 58.238281 14.738281 58.195312 14.921875 Z M 58.195312 14.921875 " fill-opacity="1" fill-rule="nonzero"/></svg>